  0
SECTION
  2
BLOCKS
  0
ENDSEC
  0
SECTION
  2
ENTITIES
  0
LINE
  8
0
 10
202.243
 20
-35.8429
 11
203.409
 21
-35.3815
  0
LINE
  8
0
 10
203.409
 20
-35.3815
 11
204.423
 21
-34.6448
  0
LINE
  8
0
 10
204.423
 20
-34.6448
 11
205.222
 21
-33.6791
  0
LINE
  8
0
 10
205.222
 20
-33.6791
 11
205.755
 21
-32.5451
  0
LINE
  8
0
 10
205.755
 20
-32.5451
 11
206
 21
-31
  0
LINE
  8
0
 10
206
 20
-31
 11
206
 21
31
  0
LINE
  8
0
 10
206
 20
31
 11
205.843
 21
32.2435
  0
LINE
  8
0
 10
205.843
 20
32.2435
 11
205.382
 21
33.4088
  0
LINE
  8
0
 10
205.382
 20
33.4088
 11
204.645
 21
34.4227
  0
LINE
  8
0
 10
204.645
 20
34.4227
 11
203.679
 21
35.2216
  0
LINE
  8
0
 10
203.679
 20
35.2216
 11
202.545
 21
35.7553
  0
LINE
  8
0
 10
202.545
 20
35.7553
 11
201
 21
36
  0
LINE
  8
0
 10
201
 20
36
 11
199
 21
36
  0
LINE
  8
0
 10
199
 20
36
 11
197.757
 21
35.8429
  0
LINE
  8
0
 10
197.757
 20
35.8429
 11
196.591
 21
35.3815
  0
LINE
  8
0
 10
196.591
 20
35.3815
 11
195.577
 21
34.6448
  0
LINE
  8
0
 10
195.577
 20
34.6448
 11
194.778
 21
33.6791
  0
LINE
  8
0
 10
194.778
 20
33.6791
 11
194.245
 21
32.5451
  0
LINE
  8
0
 10
194.245
 20
32.5451
 11
194
 21
31
  0
LINE
  8
0
 10
194
 20
31
 11
194
 21
-31
  0
LINE
  8
0
 10
194
 20
-31
 11
194.157
 21
-32.2435
  0
LINE
  8
0
 10
194.157
 20
-32.2435
 11
194.618
 21
-33.4088
  0
LINE
  8
0
 10
194.618
 20
-33.4088
 11
195.355
 21
-34.4227
  0
LINE
  8
0
 10
195.355
 20
-34.4227
 11
196.321
 21
-35.2216
  0
LINE
  8
0
 10
196.321
 20
-35.2216
 11
197.455
 21
-35.7553
  0
LINE
  8
0
 10
197.455
 20
-35.7553
 11
199
 21
-36
  0
LINE
  8
0
 10
199
 20
-36
 11
201
 21
-36
  0
LINE
  8
0
 10
201
 20
-36
 11
202.243
 21
-35.8429
  0
LINE
  8
0
 10
199.438
 20
27.0531
 11
198.723
 21
27.2855
  0
LINE
  8
0
 10
198.723
 20
27.2855
 11
198.088
 21
27.6884
  0
LINE
  8
0
 10
198.088
 20
27.6884
 11
197.573
 21
28.2366
  0
LINE
  8
0
 10
197.573
 20
28.2366
 11
197.211
 21
28.8956
  0
LINE
  8
0
 10
197.211
 20
28.8956
 11
197.024
 21
29.624
  0
LINE
  8
0
 10
197.024
 20
29.624
 11
197.024
 21
30.376
  0
LINE
  8
0
 10
197.024
 20
30.376
 11
197.211
 21
31.1044
  0
LINE
  8
0
 10
197.211
 20
31.1044
 11
197.573
 21
31.7634
  0
LINE
  8
0
 10
197.573
 20
31.7634
 11
198.088
 21
32.3115
  0
LINE
  8
0
 10
198.088
 20
32.3115
 11
198.723
 21
32.7145
  0
LINE
  8
0
 10
198.723
 20
32.7145
 11
199.438
 21
32.9469
  0
LINE
  8
0
 10
199.438
 20
32.9469
 11
200.188
 21
32.9941
  0
LINE
  8
0
 10
200.188
 20
32.9941
 11
200.927
 21
32.8532
  0
LINE
  8
0
 10
200.927
 20
32.8532
 11
201.607
 21
32.533
  0
LINE
  8
0
 10
201.607
 20
32.533
 11
202.187
 21
32.0536
  0
LINE
  8
0
 10
202.187
 20
32.0536
 11
202.629
 21
31.4453
  0
LINE
  8
0
 10
202.629
 20
31.4453
 11
202.906
 21
30.7461
  0
LINE
  8
0
 10
202.906
 20
30.7461
 11
203
 21
30
  0
LINE
  8
0
 10
203
 20
30
 11
202.906
 21
29.2539
  0
LINE
  8
0
 10
202.906
 20
29.2539
 11
202.629
 21
28.5547
  0
LINE
  8
0
 10
202.629
 20
28.5547
 11
202.187
 21
27.9464
  0
LINE
  8
0
 10
202.187
 20
27.9464
 11
201.607
 21
27.467
  0
LINE
  8
0
 10
201.607
 20
27.467
 11
200.927
 21
27.1468
  0
LINE
  8
0
 10
200.927
 20
27.1468
 11
200.188
 21
27.0059
  0
LINE
  8
0
 10
200.188
 20
27.0059
 11
199.438
 21
27.0531
  0
LINE
  8
0
 10
199.438
 20
-32.9469
 11
198.723
 21
-32.7145
  0
LINE
  8
0
 10
198.723
 20
-32.7145
 11
198.088
 21
-32.3115
  0
LINE
  8
0
 10
198.088
 20
-32.3115
 11
197.573
 21
-31.7634
  0
LINE
  8
0
 10
197.573
 20
-31.7634
 11
197.211
 21
-31.1044
  0
LINE
  8
0
 10
197.211
 20
-31.1044
 11
197.024
 21
-30.376
  0
LINE
  8
0
 10
197.024
 20
-30.376
 11
197.024
 21
-29.624
  0
LINE
  8
0
 10
197.024
 20
-29.624
 11
197.211
 21
-28.8956
  0
LINE
  8
0
 10
197.211
 20
-28.8956
 11
197.573
 21
-28.2366
  0
LINE
  8
0
 10
197.573
 20
-28.2366
 11
198.088
 21
-27.6884
  0
LINE
  8
0
 10
198.088
 20
-27.6884
 11
198.723
 21
-27.2855
  0
LINE
  8
0
 10
198.723
 20
-27.2855
 11
199.438
 21
-27.0531
  0
LINE
  8
0
 10
199.438
 20
-27.0531
 11
200.188
 21
-27.0059
  0
LINE
  8
0
 10
200.188
 20
-27.0059
 11
200.927
 21
-27.1468
  0
LINE
  8
0
 10
200.927
 20
-27.1468
 11
201.607
 21
-27.467
  0
LINE
  8
0
 10
201.607
 20
-27.467
 11
202.187
 21
-27.9464
  0
LINE
  8
0
 10
202.187
 20
-27.9464
 11
202.629
 21
-28.5547
  0
LINE
  8
0
 10
202.629
 20
-28.5547
 11
202.906
 21
-29.2539
  0
LINE
  8
0
 10
202.906
 20
-29.2539
 11
203
 21
-30
  0
LINE
  8
0
 10
203
 20
-30
 11
202.906
 21
-30.7461
  0
LINE
  8
0
 10
202.906
 20
-30.7461
 11
202.629
 21
-31.4453
  0
LINE
  8
0
 10
202.629
 20
-31.4453
 11
202.187
 21
-32.0536
  0
LINE
  8
0
 10
202.187
 20
-32.0536
 11
201.607
 21
-32.533
  0
LINE
  8
0
 10
201.607
 20
-32.533
 11
200.927
 21
-32.8532
  0
LINE
  8
0
 10
200.927
 20
-32.8532
 11
200.188
 21
-32.9941
  0
LINE
  8
0
 10
200.188
 20
-32.9941
 11
199.438
 21
-32.9469
  0
LINE
  8
0
 10
47.2435
 20
-35.8429
 11
48.4088
 21
-35.3815
  0
LINE
  8
0
 10
48.4088
 20
-35.3815
 11
49.4227
 21
-34.6448
  0
LINE
  8
0
 10
49.4227
 20
-34.6448
 11
50.2216
 21
-33.6791
  0
LINE
  8
0
 10
50.2216
 20
-33.6791
 11
50.7553
 21
-32.5451
  0
LINE
  8
0
 10
50.7553
 20
-32.5451
 11
51
 21
-31
  0
LINE
  8
0
 10
51
 20
-31
 11
51
 21
31
  0
LINE
  8
0
 10
51
 20
31
 11
50.8429
 21
32.2435
  0
LINE
  8
0
 10
50.8429
 20
32.2435
 11
50.3815
 21
33.4088
  0
LINE
  8
0
 10
50.3815
 20
33.4088
 11
49.6448
 21
34.4227
  0
LINE
  8
0
 10
49.6448
 20
34.4227
 11
48.6791
 21
35.2216
  0
LINE
  8
0
 10
48.6791
 20
35.2216
 11
47.5451
 21
35.7553
  0
LINE
  8
0
 10
47.5451
 20
35.7553
 11
46
 21
36
  0
LINE
  8
0
 10
46
 20
36
 11
-46
 21
36
  0
LINE
  8
0
 10
-46
 20
36
 11
-47.2435
 21
35.8429
  0
LINE
  8
0
 10
-47.2435
 20
35.8429
 11
-48.4088
 21
35.3815
  0
LINE
  8
0
 10
-48.4088
 20
35.3815
 11
-49.4227
 21
34.6448
  0
LINE
  8
0
 10
-49.4227
 20
34.6448
 11
-50.2216
 21
33.6791
  0
LINE
  8
0
 10
-50.2216
 20
33.6791
 11
-50.7553
 21
32.5451
  0
LINE
  8
0
 10
-50.7553
 20
32.5451
 11
-51
 21
31
  0
LINE
  8
0
 10
-51
 20
31
 11
-51
 21
-31
  0
LINE
  8
0
 10
-51
 20
-31
 11
-50.8429
 21
-32.2435
  0
LINE
  8
0
 10
-50.8429
 20
-32.2435
 11
-50.3815
 21
-33.4088
  0
LINE
  8
0
 10
-50.3815
 20
-33.4088
 11
-49.6448
 21
-34.4227
  0
LINE
  8
0
 10
-49.6448
 20
-34.4227
 11
-48.6791
 21
-35.2216
  0
LINE
  8
0
 10
-48.6791
 20
-35.2216
 11
-47.5451
 21
-35.7553
  0
LINE
  8
0
 10
-47.5451
 20
-35.7553
 11
-46
 21
-36
  0
LINE
  8
0
 10
-46
 20
-36
 11
46
 21
-36
  0
LINE
  8
0
 10
46
 20
-36
 11
47.2435
 21
-35.8429
  0
LINE
  8
0
 10
-15.5621
 20
27.0531
 11
-16.2773
 21
27.2855
  0
LINE
  8
0
 10
-16.2773
 20
27.2855
 11
-16.9123
 21
27.6884
  0
LINE
  8
0
 10
-16.9123
 20
27.6884
 11
-17.427
 21
28.2366
  0
LINE
  8
0
 10
-17.427
 20
28.2366
 11
-17.7893
 21
28.8956
  0
LINE
  8
0
 10
-17.7893
 20
28.8956
 11
-17.9763
 21
29.624
  0
LINE
  8
0
 10
-17.9763
 20
29.624
 11
-17.9763
 21
30.376
  0
LINE
  8
0
 10
-17.9763
 20
30.376
 11
-17.7893
 21
31.1044
  0
LINE
  8
0
 10
-17.7893
 20
31.1044
 11
-17.427
 21
31.7634
  0
LINE
  8
0
 10
-17.427
 20
31.7634
 11
-16.9123
 21
32.3115
  0
LINE
  8
0
 10
-16.9123
 20
32.3115
 11
-16.2773
 21
32.7145
  0
LINE
  8
0
 10
-16.2773
 20
32.7145
 11
-15.5621
 21
32.9469
  0
LINE
  8
0
 10
-15.5621
 20
32.9469
 11
-14.8116
 21
32.9941
  0
LINE
  8
0
 10
-14.8116
 20
32.9941
 11
-14.0729
 21
32.8532
  0
LINE
  8
0
 10
-14.0729
 20
32.8532
 11
-13.3925
 21
32.533
  0
LINE
  8
0
 10
-13.3925
 20
32.533
 11
-12.8131
 21
32.0536
  0
LINE
  8
0
 10
-12.8131
 20
32.0536
 11
-12.3711
 21
31.4453
  0
LINE
  8
0
 10
-12.3711
 20
31.4453
 11
-12.0942
 21
30.7461
  0
LINE
  8
0
 10
-12.0942
 20
30.7461
 11
-12
 21
30
  0
LINE
  8
0
 10
-12
 20
30
 11
-12.0942
 21
29.2539
  0
LINE
  8
0
 10
-12.0942
 20
29.2539
 11
-12.3711
 21
28.5547
  0
LINE
  8
0
 10
-12.3711
 20
28.5547
 11
-12.8131
 21
27.9464
  0
LINE
  8
0
 10
-12.8131
 20
27.9464
 11
-13.3925
 21
27.467
  0
LINE
  8
0
 10
-13.3925
 20
27.467
 11
-14.0729
 21
27.1468
  0
LINE
  8
0
 10
-14.0729
 20
27.1468
 11
-14.8116
 21
27.0059
  0
LINE
  8
0
 10
-14.8116
 20
27.0059
 11
-15.5621
 21
27.0531
  0
LINE
  8
0
 10
-38.5621
 20
27.0531
 11
-39.2773
 21
27.2855
  0
LINE
  8
0
 10
-39.2773
 20
27.2855
 11
-39.9123
 21
27.6884
  0
LINE
  8
0
 10
-39.9123
 20
27.6884
 11
-40.427
 21
28.2366
  0
LINE
  8
0
 10
-40.427
 20
28.2366
 11
-40.7893
 21
28.8956
  0
LINE
  8
0
 10
-40.7893
 20
28.8956
 11
-40.9763
 21
29.624
  0
LINE
  8
0
 10
-40.9763
 20
29.624
 11
-40.9763
 21
30.376
  0
LINE
  8
0
 10
-40.9763
 20
30.376
 11
-40.7893
 21
31.1044
  0
LINE
  8
0
 10
-40.7893
 20
31.1044
 11
-40.427
 21
31.7634
  0
LINE
  8
0
 10
-40.427
 20
31.7634
 11
-39.9123
 21
32.3115
  0
LINE
  8
0
 10
-39.9123
 20
32.3115
 11
-39.2773
 21
32.7145
  0
LINE
  8
0
 10
-39.2773
 20
32.7145
 11
-38.5621
 21
32.9469
  0
LINE
  8
0
 10
-38.5621
 20
32.9469
 11
-37.8116
 21
32.9941
  0
LINE
  8
0
 10
-37.8116
 20
32.9941
 11
-37.0729
 21
32.8532
  0
LINE
  8
0
 10
-37.0729
 20
32.8532
 11
-36.3925
 21
32.533
  0
LINE
  8
0
 10
-36.3925
 20
32.533
 11
-35.8131
 21
32.0536
  0
LINE
  8
0
 10
-35.8131
 20
32.0536
 11
-35.3711
 21
31.4453
  0
LINE
  8
0
 10
-35.3711
 20
31.4453
 11
-35.0942
 21
30.7461
  0
LINE
  8
0
 10
-35.0942
 20
30.7461
 11
-35
 21
30
  0
LINE
  8
0
 10
-35
 20
30
 11
-35.0942
 21
29.2539
  0
LINE
  8
0
 10
-35.0942
 20
29.2539
 11
-35.3711
 21
28.5547
  0
LINE
  8
0
 10
-35.3711
 20
28.5547
 11
-35.8131
 21
27.9464
  0
LINE
  8
0
 10
-35.8131
 20
27.9464
 11
-36.3925
 21
27.467
  0
LINE
  8
0
 10
-36.3925
 20
27.467
 11
-37.0729
 21
27.1468
  0
LINE
  8
0
 10
-37.0729
 20
27.1468
 11
-37.8116
 21
27.0059
  0
LINE
  8
0
 10
-37.8116
 20
27.0059
 11
-38.5621
 21
27.0531
  0
LINE
  8
0
 10
41.4379
 20
27.0531
 11
40.7227
 21
27.2855
  0
LINE
  8
0
 10
40.7227
 20
27.2855
 11
40.0877
 21
27.6884
  0
LINE
  8
0
 10
40.0877
 20
27.6884
 11
39.5729
 21
28.2366
  0
LINE
  8
0
 10
39.5729
 20
28.2366
 11
39.2107
 21
28.8956
  0
LINE
  8
0
 10
39.2107
 20
28.8956
 11
39.0237
 21
29.624
  0
LINE
  8
0
 10
39.0237
 20
29.624
 11
39.0237
 21
30.376
  0
LINE
  8
0
 10
39.0237
 20
30.376
 11
39.2107
 21
31.1044
  0
LINE
  8
0
 10
39.2107
 20
31.1044
 11
39.5729
 21
31.7634
  0
LINE
  8
0
 10
39.5729
 20
31.7634
 11
40.0877
 21
32.3115
  0
LINE
  8
0
 10
40.0877
 20
32.3115
 11
40.7227
 21
32.7145
  0
LINE
  8
0
 10
40.7227
 20
32.7145
 11
41.4379
 21
32.9469
  0
LINE
  8
0
 10
41.4379
 20
32.9469
 11
42.1884
 21
32.9941
  0
LINE
  8
0
 10
42.1884
 20
32.9941
 11
42.927
 21
32.8532
  0
LINE
  8
0
 10
42.927
 20
32.8532
 11
43.6075
 21
32.533
  0
LINE
  8
0
 10
43.6075
 20
32.533
 11
44.1869
 21
32.0536
  0
LINE
  8
0
 10
44.1869
 20
32.0536
 11
44.6289
 21
31.4453
  0
LINE
  8
0
 10
44.6289
 20
31.4453
 11
44.9057
 21
30.7461
  0
LINE
  8
0
 10
44.9057
 20
30.7461
 11
45
 21
30
  0
LINE
  8
0
 10
45
 20
30
 11
44.9057
 21
29.2539
  0
LINE
  8
0
 10
44.9057
 20
29.2539
 11
44.6289
 21
28.5547
  0
LINE
  8
0
 10
44.6289
 20
28.5547
 11
44.1869
 21
27.9464
  0
LINE
  8
0
 10
44.1869
 20
27.9464
 11
43.6075
 21
27.467
  0
LINE
  8
0
 10
43.6075
 20
27.467
 11
42.927
 21
27.1468
  0
LINE
  8
0
 10
42.927
 20
27.1468
 11
42.1884
 21
27.0059
  0
LINE
  8
0
 10
42.1884
 20
27.0059
 11
41.4379
 21
27.0531
  0
LINE
  8
0
 10
14.4379
 20
27.0531
 11
13.7227
 21
27.2855
  0
LINE
  8
0
 10
13.7227
 20
27.2855
 11
13.0877
 21
27.6884
  0
LINE
  8
0
 10
13.0877
 20
27.6884
 11
12.5729
 21
28.2366
  0
LINE
  8
0
 10
12.5729
 20
28.2366
 11
12.2107
 21
28.8956
  0
LINE
  8
0
 10
12.2107
 20
28.8956
 11
12.0237
 21
29.624
  0
LINE
  8
0
 10
12.0237
 20
29.624
 11
12.0237
 21
30.376
  0
LINE
  8
0
 10
12.0237
 20
30.376
 11
12.2107
 21
31.1044
  0
LINE
  8
0
 10
12.2107
 20
31.1044
 11
12.5729
 21
31.7634
  0
LINE
  8
0
 10
12.5729
 20
31.7634
 11
13.0877
 21
32.3115
  0
LINE
  8
0
 10
13.0877
 20
32.3115
 11
13.7227
 21
32.7145
  0
LINE
  8
0
 10
13.7227
 20
32.7145
 11
14.4379
 21
32.9469
  0
LINE
  8
0
 10
14.4379
 20
32.9469
 11
15.1884
 21
32.9941
  0
LINE
  8
0
 10
15.1884
 20
32.9941
 11
15.927
 21
32.8532
  0
LINE
  8
0
 10
15.927
 20
32.8532
 11
16.6075
 21
32.533
  0
LINE
  8
0
 10
16.6075
 20
32.533
 11
17.1869
 21
32.0536
  0
LINE
  8
0
 10
17.1869
 20
32.0536
 11
17.6289
 21
31.4453
  0
LINE
  8
0
 10
17.6289
 20
31.4453
 11
17.9057
 21
30.7461
  0
LINE
  8
0
 10
17.9057
 20
30.7461
 11
18
 21
30
  0
LINE
  8
0
 10
18
 20
30
 11
17.9057
 21
29.2539
  0
LINE
  8
0
 10
17.9057
 20
29.2539
 11
17.6289
 21
28.5547
  0
LINE
  8
0
 10
17.6289
 20
28.5547
 11
17.1869
 21
27.9464
  0
LINE
  8
0
 10
17.1869
 20
27.9464
 11
16.6075
 21
27.467
  0
LINE
  8
0
 10
16.6075
 20
27.467
 11
15.927
 21
27.1468
  0
LINE
  8
0
 10
15.927
 20
27.1468
 11
15.1884
 21
27.0059
  0
LINE
  8
0
 10
15.1884
 20
27.0059
 11
14.4379
 21
27.0531
  0
LINE
  8
0
 10
37.6789
 20
-10.9734
 11
37.3213
 21
-10.8572
  0
LINE
  8
0
 10
37.3213
 20
-10.8572
 11
37.0039
 21
-10.6558
  0
LINE
  8
0
 10
37.0039
 20
-10.6558
 11
36.7465
 21
-10.3817
  0
LINE
  8
0
 10
36.7465
 20
-10.3817
 11
36.5653
 21
-10.0522
  0
LINE
  8
0
 10
36.5653
 20
-10.0522
 11
36.4718
 21
-9.68799
  0
LINE
  8
0
 10
36.4718
 20
-9.68799
 11
36.4718
 21
-9.5
  0
LINE
  8
0
 10
36.4718
 20
-9.5
 11
-26.46
 21
-9.5
  0
LINE
  8
0
 10
-26.46
 20
-9.5
 11
-26.5071
 21
-9.87303
  0
LINE
  8
0
 10
-26.5071
 20
-9.87303
 11
-26.6455
 21
-10.2226
  0
LINE
  8
0
 10
-26.6455
 20
-10.2226
 11
-26.8665
 21
-10.5268
  0
LINE
  8
0
 10
-26.8665
 20
-10.5268
 11
-27.1562
 21
-10.7665
  0
LINE
  8
0
 10
-27.1562
 20
-10.7665
 11
-27.4965
 21
-10.9266
  0
LINE
  8
0
 10
-27.4965
 20
-10.9266
 11
-27.8658
 21
-10.997
  0
LINE
  8
0
 10
-27.8658
 20
-10.997
 11
-28.2411
 21
-10.9734
  0
LINE
  8
0
 10
-28.2411
 20
-10.9734
 11
-28.5987
 21
-10.8572
  0
LINE
  8
0
 10
-28.5987
 20
-10.8572
 11
-28.9161
 21
-10.6558
  0
LINE
  8
0
 10
-28.9161
 20
-10.6558
 11
-29.1735
 21
-10.3817
  0
LINE
  8
0
 10
-29.1735
 20
-10.3817
 11
-29.3547
 21
-10.0522
  0
LINE
  8
0
 10
-29.3547
 20
-10.0522
 11
-29.4482
 21
-9.68799
  0
LINE
  8
0
 10
-29.4482
 20
-9.68799
 11
-29.4482
 21
-9.312
  0
LINE
  8
0
 10
-29.4482
 20
-9.312
 11
-29.3547
 21
-8.9478
  0
LINE
  8
0
 10
-29.3547
 20
-8.9478
 11
-29.1735
 21
-8.61832
  0
LINE
  8
0
 10
-29.1735
 20
-8.61832
 11
-28.9161
 21
-8.34422
  0
LINE
  8
0
 10
-28.9161
 20
-8.34422
 11
-28.5987
 21
-8.14275
  0
LINE
  8
0
 10
-28.5987
 20
-8.14275
 11
-28.2411
 21
-8.02657
  0
LINE
  8
0
 10
-28.2411
 20
-8.02657
 11
-27.96
 21
-8.00888
  0
LINE
  8
0
 10
-27.96
 20
-8.00888
 11
-27.96
 21
-7.69611
  0
LINE
  8
0
 10
-27.96
 20
-7.69611
 11
-28.2411
 21
-7.67842
  0
LINE
  8
0
 10
-28.2411
 20
-7.67842
 11
-28.5987
 21
-7.56223
  0
LINE
  8
0
 10
-28.5987
 20
-7.56223
 11
-28.9161
 21
-7.36076
  0
LINE
  8
0
 10
-28.9161
 20
-7.36076
 11
-29.1735
 21
-7.08667
  0
LINE
  8
0
 10
-29.1735
 20
-7.08667
 11
-29.3547
 21
-6.75717
  0
LINE
  8
0
 10
-29.3547
 20
-6.75717
 11
-29.4482
 21
-6.39299
  0
LINE
  8
0
 10
-29.4482
 20
-6.39299
 11
-29.4482
 21
-6.20499
  0
LINE
  8
0
 10
-29.4482
 20
-6.20499
 11
-41.65
 21
-6.20499
  0
LINE
  8
0
 10
-41.65
 20
-6.20499
 11
-41.6971
 21
-6.57803
  0
LINE
  8
0
 10
-41.6971
 20
-6.57803
 11
-41.8355
 21
-6.92763
  0
LINE
  8
0
 10
-41.8355
 20
-6.92763
 11
-42.0565
 21
-7.23181
  0
LINE
  8
0
 10
-42.0565
 20
-7.23181
 11
-42.3463
 21
-7.47148
  0
LINE
  8
0
 10
-42.3463
 20
-7.47148
 11
-42.6865
 21
-7.63158
  0
LINE
  8
0
 10
-42.6865
 20
-7.63158
 11
-43.0558
 21
-7.70203
  0
LINE
  8
0
 10
-43.0558
 20
-7.70203
 11
-43.4311
 21
-7.67842
  0
LINE
  8
0
 10
-43.4311
 20
-7.67842
 11
-43.7887
 21
-7.56223
  0
LINE
  8
0
 10
-43.7887
 20
-7.56223
 11
-44.1061
 21
-7.36076
  0
LINE
  8
0
 10
-44.1061
 20
-7.36076
 11
-44.3635
 21
-7.08667
  0
LINE
  8
0
 10
-44.3635
 20
-7.08667
 11
-44.5447
 21
-6.75717
  0
LINE
  8
0
 10
-44.5447
 20
-6.75717
 11
-44.6382
 21
-6.39299
  0
LINE
  8
0
 10
-44.6382
 20
-6.39299
 11
-44.6382
 21
-6.017
  0
LINE
  8
0
 10
-44.6382
 20
-6.017
 11
-44.5447
 21
-5.6528
  0
LINE
  8
0
 10
-44.5447
 20
-5.6528
 11
-44.3635
 21
-5.32332
  0
LINE
  8
0
 10
-44.3635
 20
-5.32332
 11
-44.1061
 21
-5.04922
  0
LINE
  8
0
 10
-44.1061
 20
-5.04922
 11
-43.7887
 21
-4.84775
  0
LINE
  8
0
 10
-43.7887
 20
-4.84775
 11
-43.4311
 21
-4.73157
  0
LINE
  8
0
 10
-43.4311
 20
-4.73157
 11
-43.15
 21
-4.71388
  0
LINE
  8
0
 10
-43.15
 20
-4.71388
 11
-43.15
 21
4.71388
  0
LINE
  8
0
 10
-43.15
 20
4.71388
 11
-43.4311
 21
4.73157
  0
LINE
  8
0
 10
-43.4311
 20
4.73157
 11
-43.7887
 21
4.84775
  0
LINE
  8
0
 10
-43.7887
 20
4.84775
 11
-44.1061
 21
5.04922
  0
LINE
  8
0
 10
-44.1061
 20
5.04922
 11
-44.3635
 21
5.32332
  0
LINE
  8
0
 10
-44.3635
 20
5.32332
 11
-44.5447
 21
5.6528
  0
LINE
  8
0
 10
-44.5447
 20
5.6528
 11
-44.6382
 21
6.017
  0
LINE
  8
0
 10
-44.6382
 20
6.017
 11
-44.6382
 21
6.39299
  0
LINE
  8
0
 10
-44.6382
 20
6.39299
 11
-44.5447
 21
6.75717
  0
LINE
  8
0
 10
-44.5447
 20
6.75717
 11
-44.3635
 21
7.08667
  0
LINE
  8
0
 10
-44.3635
 20
7.08667
 11
-44.1061
 21
7.36076
  0
LINE
  8
0
 10
-44.1061
 20
7.36076
 11
-43.7887
 21
7.56223
  0
LINE
  8
0
 10
-43.7887
 20
7.56223
 11
-43.4311
 21
7.67842
  0
LINE
  8
0
 10
-43.4311
 20
7.67842
 11
-43.0558
 21
7.70203
  0
LINE
  8
0
 10
-43.0558
 20
7.70203
 11
-42.6865
 21
7.63158
  0
LINE
  8
0
 10
-42.6865
 20
7.63158
 11
-42.3463
 21
7.47148
  0
LINE
  8
0
 10
-42.3463
 20
7.47148
 11
-42.0565
 21
7.23181
  0
LINE
  8
0
 10
-42.0565
 20
7.23181
 11
-41.8355
 21
6.92763
  0
LINE
  8
0
 10
-41.8355
 20
6.92763
 11
-41.6971
 21
6.57803
  0
LINE
  8
0
 10
-41.6971
 20
6.57803
 11
-41.65
 21
6.20499
  0
LINE
  8
0
 10
-41.65
 20
6.20499
 11
-29.4482
 21
6.20499
  0
LINE
  8
0
 10
-29.4482
 20
6.20499
 11
-29.4482
 21
6.39299
  0
LINE
  8
0
 10
-29.4482
 20
6.39299
 11
-29.3547
 21
6.75717
  0
LINE
  8
0
 10
-29.3547
 20
6.75717
 11
-29.1735
 21
7.08667
  0
LINE
  8
0
 10
-29.1735
 20
7.08667
 11
-28.9161
 21
7.36076
  0
LINE
  8
0
 10
-28.9161
 20
7.36076
 11
-28.5987
 21
7.56223
  0
LINE
  8
0
 10
-28.5987
 20
7.56223
 11
-28.2411
 21
7.67842
  0
LINE
  8
0
 10
-28.2411
 20
7.67842
 11
-27.96
 21
7.69611
  0
LINE
  8
0
 10
-27.96
 20
7.69611
 11
-27.96
 21
8.00888
  0
LINE
  8
0
 10
-27.96
 20
8.00888
 11
-28.2411
 21
8.02657
  0
LINE
  8
0
 10
-28.2411
 20
8.02657
 11
-28.5987
 21
8.14275
  0
LINE
  8
0
 10
-28.5987
 20
8.14275
 11
-28.9161
 21
8.34422
  0
LINE
  8
0
 10
-28.9161
 20
8.34422
 11
-29.1735
 21
8.61832
  0
LINE
  8
0
 10
-29.1735
 20
8.61832
 11
-29.3547
 21
8.9478
  0
LINE
  8
0
 10
-29.3547
 20
8.9478
 11
-29.4482
 21
9.312
  0
LINE
  8
0
 10
-29.4482
 20
9.312
 11
-29.4482
 21
9.68799
  0
LINE
  8
0
 10
-29.4482
 20
9.68799
 11
-29.3547
 21
10.0522
  0
LINE
  8
0
 10
-29.3547
 20
10.0522
 11
-29.1735
 21
10.3817
  0
LINE
  8
0
 10
-29.1735
 20
10.3817
 11
-28.9161
 21
10.6558
  0
LINE
  8
0
 10
-28.9161
 20
10.6558
 11
-28.5987
 21
10.8572
  0
LINE
  8
0
 10
-28.5987
 20
10.8572
 11
-28.2411
 21
10.9734
  0
LINE
  8
0
 10
-28.2411
 20
10.9734
 11
-27.8658
 21
10.997
  0
LINE
  8
0
 10
-27.8658
 20
10.997
 11
-27.4965
 21
10.9266
  0
LINE
  8
0
 10
-27.4965
 20
10.9266
 11
-27.1562
 21
10.7665
  0
LINE
  8
0
 10
-27.1562
 20
10.7665
 11
-26.8665
 21
10.5268
  0
LINE
  8
0
 10
-26.8665
 20
10.5268
 11
-26.6455
 21
10.2226
  0
LINE
  8
0
 10
-26.6455
 20
10.2226
 11
-26.5071
 21
9.87303
  0
LINE
  8
0
 10
-26.5071
 20
9.87303
 11
-26.46
 21
9.5
  0
LINE
  8
0
 10
-26.46
 20
9.5
 11
36.4718
 21
9.5
  0
LINE
  8
0
 10
36.4718
 20
9.5
 11
36.4718
 21
9.68799
  0
LINE
  8
0
 10
36.4718
 20
9.68799
 11
36.5653
 21
10.0522
  0
LINE
  8
0
 10
36.5653
 20
10.0522
 11
36.7465
 21
10.3817
  0
LINE
  8
0
 10
36.7465
 20
10.3817
 11
37.0039
 21
10.6558
  0
LINE
  8
0
 10
37.0039
 20
10.6558
 11
37.3213
 21
10.8572
  0
LINE
  8
0
 10
37.3213
 20
10.8572
 11
37.6789
 21
10.9734
  0
LINE
  8
0
 10
37.6789
 20
10.9734
 11
38.0542
 21
10.997
  0
LINE
  8
0
 10
38.0542
 20
10.997
 11
38.4235
 21
10.9266
  0
LINE
  8
0
 10
38.4235
 20
10.9266
 11
38.7637
 21
10.7665
  0
LINE
  8
0
 10
38.7637
 20
10.7665
 11
39.0535
 21
10.5268
  0
LINE
  8
0
 10
39.0535
 20
10.5268
 11
39.2745
 21
10.2226
  0
LINE
  8
0
 10
39.2745
 20
10.2226
 11
39.4129
 21
9.87303
  0
LINE
  8
0
 10
39.4129
 20
9.87303
 11
39.46
 21
9.5
  0
LINE
  8
0
 10
39.46
 20
9.5
 11
39.4129
 21
9.12695
  0
LINE
  8
0
 10
39.4129
 20
9.12695
 11
39.2745
 21
8.77736
  0
LINE
  8
0
 10
39.2745
 20
8.77736
 11
39.0535
 21
8.47318
  0
LINE
  8
0
 10
39.0535
 20
8.47318
 11
38.7637
 21
8.23351
  0
LINE
  8
0
 10
38.7637
 20
8.23351
 11
38.4235
 21
8.07341
  0
LINE
  8
0
 10
38.4235
 20
8.07341
 11
38.0542
 21
8.00294
  0
LINE
  8
0
 10
38.0542
 20
8.00294
 11
37.96
 21
8.00888
  0
LINE
  8
0
 10
37.96
 20
8.00888
 11
37.96
 21
4.7411
  0
LINE
  8
0
 10
37.96
 20
4.7411
 11
38.0542
 21
4.74704
  0
LINE
  8
0
 10
38.0542
 20
4.74704
 11
38.4235
 21
4.67657
  0
LINE
  8
0
 10
38.4235
 20
4.67657
 11
38.7637
 21
4.51648
  0
LINE
  8
0
 10
38.7637
 20
4.51648
 11
39.0535
 21
4.27681
  0
LINE
  8
0
 10
39.0535
 20
4.27681
 11
39.2745
 21
3.97263
  0
LINE
  8
0
 10
39.2745
 20
3.97263
 11
39.4129
 21
3.62303
  0
LINE
  8
0
 10
39.4129
 20
3.62303
 11
39.46
 21
3.25
  0
LINE
  8
0
 10
39.46
 20
3.25
 11
42.7718
 21
3.25
  0
LINE
  8
0
 10
42.7718
 20
3.25
 11
42.7718
 21
3.43799
  0
LINE
  8
0
 10
42.7718
 20
3.43799
 11
42.8653
 21
3.80219
  0
LINE
  8
0
 10
42.8653
 20
3.80219
 11
43.0465
 21
4.13167
  0
LINE
  8
0
 10
43.0465
 20
4.13167
 11
43.3039
 21
4.40576
  0
LINE
  8
0
 10
43.3039
 20
4.40576
 11
43.6213
 21
4.60724
  0
LINE
  8
0
 10
43.6213
 20
4.60724
 11
43.9789
 21
4.72342
  0
LINE
  8
0
 10
43.9789
 20
4.72342
 11
44.3542
 21
4.74704
  0
LINE
  8
0
 10
44.3542
 20
4.74704
 11
44.7235
 21
4.67657
  0
LINE
  8
0
 10
44.7235
 20
4.67657
 11
45.0637
 21
4.51648
  0
LINE
  8
0
 10
45.0637
 20
4.51648
 11
45.3534
 21
4.27681
  0
LINE
  8
0
 10
45.3534
 20
4.27681
 11
45.5744
 21
3.97263
  0
LINE
  8
0
 10
45.5744
 20
3.97263
 11
45.7129
 21
3.62303
  0
LINE
  8
0
 10
45.7129
 20
3.62303
 11
45.76
 21
3.25
  0
LINE
  8
0
 10
45.76
 20
3.25
 11
45.7129
 21
2.87695
  0
LINE
  8
0
 10
45.7129
 20
2.87695
 11
45.5744
 21
2.52736
  0
LINE
  8
0
 10
45.5744
 20
2.52736
 11
45.3534
 21
2.22318
  0
LINE
  8
0
 10
45.3534
 20
2.22318
 11
45.0637
 21
1.98351
  0
LINE
  8
0
 10
45.0637
 20
1.98351
 11
44.7235
 21
1.82341
  0
LINE
  8
0
 10
44.7235
 20
1.82341
 11
44.3542
 21
1.75294
  0
LINE
  8
0
 10
44.3542
 20
1.75294
 11
44.26
 21
1.75888
  0
LINE
  8
0
 10
44.26
 20
1.75888
 11
44.26
 21
-1.75888
  0
LINE
  8
0
 10
44.26
 20
-1.75888
 11
44.3542
 21
-1.75294
  0
LINE
  8
0
 10
44.3542
 20
-1.75294
 11
44.7235
 21
-1.82341
  0
LINE
  8
0
 10
44.7235
 20
-1.82341
 11
45.0637
 21
-1.98351
  0
LINE
  8
0
 10
45.0637
 20
-1.98351
 11
45.3534
 21
-2.22318
  0
LINE
  8
0
 10
45.3534
 20
-2.22318
 11
45.5744
 21
-2.52736
  0
LINE
  8
0
 10
45.5744
 20
-2.52736
 11
45.7129
 21
-2.87695
  0
LINE
  8
0
 10
45.7129
 20
-2.87695
 11
45.76
 21
-3.25
  0
LINE
  8
0
 10
45.76
 20
-3.25
 11
45.7129
 21
-3.62303
  0
LINE
  8
0
 10
45.7129
 20
-3.62303
 11
45.5744
 21
-3.97263
  0
LINE
  8
0
 10
45.5744
 20
-3.97263
 11
45.3534
 21
-4.27681
  0
LINE
  8
0
 10
45.3534
 20
-4.27681
 11
45.0637
 21
-4.51648
  0
LINE
  8
0
 10
45.0637
 20
-4.51648
 11
44.7235
 21
-4.67657
  0
LINE
  8
0
 10
44.7235
 20
-4.67657
 11
44.3542
 21
-4.74704
  0
LINE
  8
0
 10
44.3542
 20
-4.74704
 11
43.9789
 21
-4.72342
  0
LINE
  8
0
 10
43.9789
 20
-4.72342
 11
43.6213
 21
-4.60724
  0
LINE
  8
0
 10
43.6213
 20
-4.60724
 11
43.3039
 21
-4.40576
  0
LINE
  8
0
 10
43.3039
 20
-4.40576
 11
43.0465
 21
-4.13167
  0
LINE
  8
0
 10
43.0465
 20
-4.13167
 11
42.8653
 21
-3.80219
  0
LINE
  8
0
 10
42.8653
 20
-3.80219
 11
42.7718
 21
-3.43799
  0
LINE
  8
0
 10
42.7718
 20
-3.43799
 11
42.7718
 21
-3.25
  0
LINE
  8
0
 10
42.7718
 20
-3.25
 11
39.46
 21
-3.25
  0
LINE
  8
0
 10
39.46
 20
-3.25
 11
39.4129
 21
-3.62303
  0
LINE
  8
0
 10
39.4129
 20
-3.62303
 11
39.2745
 21
-3.97263
  0
LINE
  8
0
 10
39.2745
 20
-3.97263
 11
39.0535
 21
-4.27681
  0
LINE
  8
0
 10
39.0535
 20
-4.27681
 11
38.7637
 21
-4.51648
  0
LINE
  8
0
 10
38.7637
 20
-4.51648
 11
38.4235
 21
-4.67657
  0
LINE
  8
0
 10
38.4235
 20
-4.67657
 11
38.0542
 21
-4.74704
  0
LINE
  8
0
 10
38.0542
 20
-4.74704
 11
37.96
 21
-4.7411
  0
LINE
  8
0
 10
37.96
 20
-4.7411
 11
37.96
 21
-8.00888
  0
LINE
  8
0
 10
37.96
 20
-8.00888
 11
38.0542
 21
-8.00294
  0
LINE
  8
0
 10
38.0542
 20
-8.00294
 11
38.4235
 21
-8.07341
  0
LINE
  8
0
 10
38.4235
 20
-8.07341
 11
38.7637
 21
-8.23351
  0
LINE
  8
0
 10
38.7637
 20
-8.23351
 11
39.0535
 21
-8.47318
  0
LINE
  8
0
 10
39.0535
 20
-8.47318
 11
39.2745
 21
-8.77736
  0
LINE
  8
0
 10
39.2745
 20
-8.77736
 11
39.4129
 21
-9.12695
  0
LINE
  8
0
 10
39.4129
 20
-9.12695
 11
39.46
 21
-9.5
  0
LINE
  8
0
 10
39.46
 20
-9.5
 11
39.4129
 21
-9.87303
  0
LINE
  8
0
 10
39.4129
 20
-9.87303
 11
39.2745
 21
-10.2226
  0
LINE
  8
0
 10
39.2745
 20
-10.2226
 11
39.0535
 21
-10.5268
  0
LINE
  8
0
 10
39.0535
 20
-10.5268
 11
38.7637
 21
-10.7665
  0
LINE
  8
0
 10
38.7637
 20
-10.7665
 11
38.4235
 21
-10.9266
  0
LINE
  8
0
 10
38.4235
 20
-10.9266
 11
38.0542
 21
-10.997
  0
LINE
  8
0
 10
38.0542
 20
-10.997
 11
37.6789
 21
-10.9734
  0
LINE
  8
0
 10
-38.5621
 20
-32.9469
 11
-39.2773
 21
-32.7145
  0
LINE
  8
0
 10
-39.2773
 20
-32.7145
 11
-39.9123
 21
-32.3115
  0
LINE
  8
0
 10
-39.9123
 20
-32.3115
 11
-40.427
 21
-31.7634
  0
LINE
  8
0
 10
-40.427
 20
-31.7634
 11
-40.7893
 21
-31.1044
  0
LINE
  8
0
 10
-40.7893
 20
-31.1044
 11
-40.9763
 21
-30.376
  0
LINE
  8
0
 10
-40.9763
 20
-30.376
 11
-40.9763
 21
-29.624
  0
LINE
  8
0
 10
-40.9763
 20
-29.624
 11
-40.7893
 21
-28.8956
  0
LINE
  8
0
 10
-40.7893
 20
-28.8956
 11
-40.427
 21
-28.2366
  0
LINE
  8
0
 10
-40.427
 20
-28.2366
 11
-39.9123
 21
-27.6884
  0
LINE
  8
0
 10
-39.9123
 20
-27.6884
 11
-39.2773
 21
-27.2855
  0
LINE
  8
0
 10
-39.2773
 20
-27.2855
 11
-38.5621
 21
-27.0531
  0
LINE
  8
0
 10
-38.5621
 20
-27.0531
 11
-37.8116
 21
-27.0059
  0
LINE
  8
0
 10
-37.8116
 20
-27.0059
 11
-37.0729
 21
-27.1468
  0
LINE
  8
0
 10
-37.0729
 20
-27.1468
 11
-36.3925
 21
-27.467
  0
LINE
  8
0
 10
-36.3925
 20
-27.467
 11
-35.8131
 21
-27.9464
  0
LINE
  8
0
 10
-35.8131
 20
-27.9464
 11
-35.3711
 21
-28.5547
  0
LINE
  8
0
 10
-35.3711
 20
-28.5547
 11
-35.0942
 21
-29.2539
  0
LINE
  8
0
 10
-35.0942
 20
-29.2539
 11
-35
 21
-30
  0
LINE
  8
0
 10
-35
 20
-30
 11
-35.0942
 21
-30.7461
  0
LINE
  8
0
 10
-35.0942
 20
-30.7461
 11
-35.3711
 21
-31.4453
  0
LINE
  8
0
 10
-35.3711
 20
-31.4453
 11
-35.8131
 21
-32.0536
  0
LINE
  8
0
 10
-35.8131
 20
-32.0536
 11
-36.3925
 21
-32.533
  0
LINE
  8
0
 10
-36.3925
 20
-32.533
 11
-37.0729
 21
-32.8532
  0
LINE
  8
0
 10
-37.0729
 20
-32.8532
 11
-37.8116
 21
-32.9941
  0
LINE
  8
0
 10
-37.8116
 20
-32.9941
 11
-38.5621
 21
-32.9469
  0
LINE
  8
0
 10
14.4379
 20
-32.9469
 11
13.7227
 21
-32.7145
  0
LINE
  8
0
 10
13.7227
 20
-32.7145
 11
13.0877
 21
-32.3115
  0
LINE
  8
0
 10
13.0877
 20
-32.3115
 11
12.5729
 21
-31.7634
  0
LINE
  8
0
 10
12.5729
 20
-31.7634
 11
12.2107
 21
-31.1044
  0
LINE
  8
0
 10
12.2107
 20
-31.1044
 11
12.0237
 21
-30.376
  0
LINE
  8
0
 10
12.0237
 20
-30.376
 11
12.0237
 21
-29.624
  0
LINE
  8
0
 10
12.0237
 20
-29.624
 11
12.2107
 21
-28.8956
  0
LINE
  8
0
 10
12.2107
 20
-28.8956
 11
12.5729
 21
-28.2366
  0
LINE
  8
0
 10
12.5729
 20
-28.2366
 11
13.0877
 21
-27.6884
  0
LINE
  8
0
 10
13.0877
 20
-27.6884
 11
13.7227
 21
-27.2855
  0
LINE
  8
0
 10
13.7227
 20
-27.2855
 11
14.4379
 21
-27.0531
  0
LINE
  8
0
 10
14.4379
 20
-27.0531
 11
15.1884
 21
-27.0059
  0
LINE
  8
0
 10
15.1884
 20
-27.0059
 11
15.927
 21
-27.1468
  0
LINE
  8
0
 10
15.927
 20
-27.1468
 11
16.6075
 21
-27.467
  0
LINE
  8
0
 10
16.6075
 20
-27.467
 11
17.1869
 21
-27.9464
  0
LINE
  8
0
 10
17.1869
 20
-27.9464
 11
17.6289
 21
-28.5547
  0
LINE
  8
0
 10
17.6289
 20
-28.5547
 11
17.9057
 21
-29.2539
  0
LINE
  8
0
 10
17.9057
 20
-29.2539
 11
18
 21
-30
  0
LINE
  8
0
 10
18
 20
-30
 11
17.9057
 21
-30.7461
  0
LINE
  8
0
 10
17.9057
 20
-30.7461
 11
17.6289
 21
-31.4453
  0
LINE
  8
0
 10
17.6289
 20
-31.4453
 11
17.1869
 21
-32.0536
  0
LINE
  8
0
 10
17.1869
 20
-32.0536
 11
16.6075
 21
-32.533
  0
LINE
  8
0
 10
16.6075
 20
-32.533
 11
15.927
 21
-32.8532
  0
LINE
  8
0
 10
15.927
 20
-32.8532
 11
15.1884
 21
-32.9941
  0
LINE
  8
0
 10
15.1884
 20
-32.9941
 11
14.4379
 21
-32.9469
  0
LINE
  8
0
 10
41.4379
 20
-32.9469
 11
40.7227
 21
-32.7145
  0
LINE
  8
0
 10
40.7227
 20
-32.7145
 11
40.0877
 21
-32.3115
  0
LINE
  8
0
 10
40.0877
 20
-32.3115
 11
39.5729
 21
-31.7634
  0
LINE
  8
0
 10
39.5729
 20
-31.7634
 11
39.2107
 21
-31.1044
  0
LINE
  8
0
 10
39.2107
 20
-31.1044
 11
39.0237
 21
-30.376
  0
LINE
  8
0
 10
39.0237
 20
-30.376
 11
39.0237
 21
-29.624
  0
LINE
  8
0
 10
39.0237
 20
-29.624
 11
39.2107
 21
-28.8956
  0
LINE
  8
0
 10
39.2107
 20
-28.8956
 11
39.5729
 21
-28.2366
  0
LINE
  8
0
 10
39.5729
 20
-28.2366
 11
40.0877
 21
-27.6884
  0
LINE
  8
0
 10
40.0877
 20
-27.6884
 11
40.7227
 21
-27.2855
  0
LINE
  8
0
 10
40.7227
 20
-27.2855
 11
41.4379
 21
-27.0531
  0
LINE
  8
0
 10
41.4379
 20
-27.0531
 11
42.1884
 21
-27.0059
  0
LINE
  8
0
 10
42.1884
 20
-27.0059
 11
42.927
 21
-27.1468
  0
LINE
  8
0
 10
42.927
 20
-27.1468
 11
43.6075
 21
-27.467
  0
LINE
  8
0
 10
43.6075
 20
-27.467
 11
44.1869
 21
-27.9464
  0
LINE
  8
0
 10
44.1869
 20
-27.9464
 11
44.6289
 21
-28.5547
  0
LINE
  8
0
 10
44.6289
 20
-28.5547
 11
44.9057
 21
-29.2539
  0
LINE
  8
0
 10
44.9057
 20
-29.2539
 11
45
 21
-30
  0
LINE
  8
0
 10
45
 20
-30
 11
44.9057
 21
-30.7461
  0
LINE
  8
0
 10
44.9057
 20
-30.7461
 11
44.6289
 21
-31.4453
  0
LINE
  8
0
 10
44.6289
 20
-31.4453
 11
44.1869
 21
-32.0536
  0
LINE
  8
0
 10
44.1869
 20
-32.0536
 11
43.6075
 21
-32.533
  0
LINE
  8
0
 10
43.6075
 20
-32.533
 11
42.927
 21
-32.8532
  0
LINE
  8
0
 10
42.927
 20
-32.8532
 11
42.1884
 21
-32.9941
  0
LINE
  8
0
 10
42.1884
 20
-32.9941
 11
41.4379
 21
-32.9469
  0
LINE
  8
0
 10
-15.5621
 20
-32.9469
 11
-16.2773
 21
-32.7145
  0
LINE
  8
0
 10
-16.2773
 20
-32.7145
 11
-16.9123
 21
-32.3115
  0
LINE
  8
0
 10
-16.9123
 20
-32.3115
 11
-17.427
 21
-31.7634
  0
LINE
  8
0
 10
-17.427
 20
-31.7634
 11
-17.7893
 21
-31.1044
  0
LINE
  8
0
 10
-17.7893
 20
-31.1044
 11
-17.9763
 21
-30.376
  0
LINE
  8
0
 10
-17.9763
 20
-30.376
 11
-17.9763
 21
-29.624
  0
LINE
  8
0
 10
-17.9763
 20
-29.624
 11
-17.7893
 21
-28.8956
  0
LINE
  8
0
 10
-17.7893
 20
-28.8956
 11
-17.427
 21
-28.2366
  0
LINE
  8
0
 10
-17.427
 20
-28.2366
 11
-16.9123
 21
-27.6884
  0
LINE
  8
0
 10
-16.9123
 20
-27.6884
 11
-16.2773
 21
-27.2855
  0
LINE
  8
0
 10
-16.2773
 20
-27.2855
 11
-15.5621
 21
-27.0531
  0
LINE
  8
0
 10
-15.5621
 20
-27.0531
 11
-14.8116
 21
-27.0059
  0
LINE
  8
0
 10
-14.8116
 20
-27.0059
 11
-14.0729
 21
-27.1468
  0
LINE
  8
0
 10
-14.0729
 20
-27.1468
 11
-13.3925
 21
-27.467
  0
LINE
  8
0
 10
-13.3925
 20
-27.467
 11
-12.8131
 21
-27.9464
  0
LINE
  8
0
 10
-12.8131
 20
-27.9464
 11
-12.3711
 21
-28.5547
  0
LINE
  8
0
 10
-12.3711
 20
-28.5547
 11
-12.0942
 21
-29.2539
  0
LINE
  8
0
 10
-12.0942
 20
-29.2539
 11
-12
 21
-30
  0
LINE
  8
0
 10
-12
 20
-30
 11
-12.0942
 21
-30.7461
  0
LINE
  8
0
 10
-12.0942
 20
-30.7461
 11
-12.3711
 21
-31.4453
  0
LINE
  8
0
 10
-12.3711
 20
-31.4453
 11
-12.8131
 21
-32.0536
  0
LINE
  8
0
 10
-12.8131
 20
-32.0536
 11
-13.3925
 21
-32.533
  0
LINE
  8
0
 10
-13.3925
 20
-32.533
 11
-14.0729
 21
-32.8532
  0
LINE
  8
0
 10
-14.0729
 20
-32.8532
 11
-14.8116
 21
-32.9941
  0
LINE
  8
0
 10
-14.8116
 20
-32.9941
 11
-15.5621
 21
-32.9469
  0
ENDSEC
  0
SECTION
  2
OBJECTS
  0
DICTIONARY
  0
ENDSEC
  0
EOF
