<?xml version="1.0" standalone="no"?>
<!DOCTYPE svg PUBLIC "-//W3C//DTD SVG 1.1//EN" "http://www.w3.org/Graphics/SVG/1.1/DTD/svg11.dtd">
<svg width="12mm" height="72mm" viewBox="-6 -36 12 72" xmlns="http://www.w3.org/2000/svg" version="1.1">
<title>OpenSCAD Model</title>
<path d="
M 2.24345,35.8429 L 3.40877,35.3815 L 4.42273,34.6448 L 5.22163,33.6791 L 5.75528,32.5451 L 6,31
 L 6,-31 L 5.84291,-32.2435 L 5.38153,-33.4088 L 4.64484,-34.4227 L 3.67914,-35.2216 L 2.54509,-35.7553
 L 1,-36 L -1,-36 L -2.24345,-35.8429 L -3.40877,-35.3815 L -4.42273,-34.6448 L -5.22163,-33.6791
 L -5.75528,-32.5451 L -6,-31 L -6,31 L -5.84291,32.2435 L -5.38153,33.4088 L -4.64484,34.4227
 L -3.67914,35.2216 L -2.54509,35.7553 L -1,36 L 1,36 z
M -0.562134,-27.0531 L -1.27733,-27.2855 L -1.91226,-27.6884 L -2.42705,-28.2366 L -2.78932,-28.8956 L -2.97633,-29.624
 L -2.97633,-30.376 L -2.78932,-31.1044 L -2.42705,-31.7634 L -1.91226,-32.3115 L -1.27733,-32.7145 L -0.562134,-32.9469
 L 0.18837,-32.9941 L 0.927048,-32.8532 L 1.60747,-32.533 L 2.1869,-32.0536 L 2.62891,-31.4453 L 2.90575,-30.7461
 L 3,-30 L 2.90575,-29.2539 L 2.62891,-28.5547 L 2.1869,-27.9464 L 1.60747,-27.467 L 0.927048,-27.1468
 L 0.18837,-27.0059 z
M -0.562134,32.9469 L -1.27733,32.7145 L -1.91226,32.3115 L -2.42705,31.7634 L -2.78932,31.1044 L -2.97633,30.376
 L -2.97633,29.624 L -2.78932,28.8956 L -2.42705,28.2366 L -1.91226,27.6884 L -1.27733,27.2855 L -0.562134,27.0531
 L 0.18837,27.0059 L 0.927048,27.1468 L 1.60747,27.467 L 2.1869,27.9464 L 2.62891,28.5547 L 2.90575,29.2539
 L 3,30 L 2.90575,30.7461 L 2.62891,31.4453 L 2.1869,32.0536 L 1.60747,32.533 L 0.927048,32.8532
 L 0.18837,32.9941 z
" stroke="black" fill="lightgray" stroke-width="0.5"/>
</svg>
