  0
SECTION
  2
BLOCKS
  0
ENDSEC
  0
SECTION
  2
ENTITIES
  0
LINE
  8
0
 10
2.24345
 20
-35.8429
 11
3.40877
 21
-35.3815
  0
LINE
  8
0
 10
3.40877
 20
-35.3815
 11
4.42273
 21
-34.6448
  0
LINE
  8
0
 10
4.42273
 20
-34.6448
 11
5.22163
 21
-33.6791
  0
LINE
  8
0
 10
5.22163
 20
-33.6791
 11
5.75528
 21
-32.5451
  0
LINE
  8
0
 10
5.75528
 20
-32.5451
 11
6
 21
-31
  0
LINE
  8
0
 10
6
 20
-31
 11
6
 21
31
  0
LINE
  8
0
 10
6
 20
31
 11
5.84291
 21
32.2435
  0
LINE
  8
0
 10
5.84291
 20
32.2435
 11
5.38153
 21
33.4088
  0
LINE
  8
0
 10
5.38153
 20
33.4088
 11
4.64484
 21
34.4227
  0
LINE
  8
0
 10
4.64484
 20
34.4227
 11
3.67914
 21
35.2216
  0
LINE
  8
0
 10
3.67914
 20
35.2216
 11
2.54509
 21
35.7553
  0
LINE
  8
0
 10
2.54509
 20
35.7553
 11
1
 21
36
  0
LINE
  8
0
 10
1
 20
36
 11
-1
 21
36
  0
LINE
  8
0
 10
-1
 20
36
 11
-2.24345
 21
35.8429
  0
LINE
  8
0
 10
-2.24345
 20
35.8429
 11
-3.40877
 21
35.3815
  0
LINE
  8
0
 10
-3.40877
 20
35.3815
 11
-4.42273
 21
34.6448
  0
LINE
  8
0
 10
-4.42273
 20
34.6448
 11
-5.22163
 21
33.6791
  0
LINE
  8
0
 10
-5.22163
 20
33.6791
 11
-5.75528
 21
32.5451
  0
LINE
  8
0
 10
-5.75528
 20
32.5451
 11
-6
 21
31
  0
LINE
  8
0
 10
-6
 20
31
 11
-6
 21
-31
  0
LINE
  8
0
 10
-6
 20
-31
 11
-5.84291
 21
-32.2435
  0
LINE
  8
0
 10
-5.84291
 20
-32.2435
 11
-5.38153
 21
-33.4088
  0
LINE
  8
0
 10
-5.38153
 20
-33.4088
 11
-4.64484
 21
-34.4227
  0
LINE
  8
0
 10
-4.64484
 20
-34.4227
 11
-3.67914
 21
-35.2216
  0
LINE
  8
0
 10
-3.67914
 20
-35.2216
 11
-2.54509
 21
-35.7553
  0
LINE
  8
0
 10
-2.54509
 20
-35.7553
 11
-1
 21
-36
  0
LINE
  8
0
 10
-1
 20
-36
 11
1
 21
-36
  0
LINE
  8
0
 10
1
 20
-36
 11
2.24345
 21
-35.8429
  0
LINE
  8
0
 10
-0.562134
 20
27.0531
 11
-1.27733
 21
27.2855
  0
LINE
  8
0
 10
-1.27733
 20
27.2855
 11
-1.91226
 21
27.6884
  0
LINE
  8
0
 10
-1.91226
 20
27.6884
 11
-2.42705
 21
28.2366
  0
LINE
  8
0
 10
-2.42705
 20
28.2366
 11
-2.78932
 21
28.8956
  0
LINE
  8
0
 10
-2.78932
 20
28.8956
 11
-2.97633
 21
29.624
  0
LINE
  8
0
 10
-2.97633
 20
29.624
 11
-2.97633
 21
30.376
  0
LINE
  8
0
 10
-2.97633
 20
30.376
 11
-2.78932
 21
31.1044
  0
LINE
  8
0
 10
-2.78932
 20
31.1044
 11
-2.42705
 21
31.7634
  0
LINE
  8
0
 10
-2.42705
 20
31.7634
 11
-1.91226
 21
32.3115
  0
LINE
  8
0
 10
-1.91226
 20
32.3115
 11
-1.27733
 21
32.7145
  0
LINE
  8
0
 10
-1.27733
 20
32.7145
 11
-0.562134
 21
32.9469
  0
LINE
  8
0
 10
-0.562134
 20
32.9469
 11
0.18837
 21
32.9941
  0
LINE
  8
0
 10
0.18837
 20
32.9941
 11
0.927048
 21
32.8532
  0
LINE
  8
0
 10
0.927048
 20
32.8532
 11
1.60747
 21
32.533
  0
LINE
  8
0
 10
1.60747
 20
32.533
 11
2.1869
 21
32.0536
  0
LINE
  8
0
 10
2.1869
 20
32.0536
 11
2.62891
 21
31.4453
  0
LINE
  8
0
 10
2.62891
 20
31.4453
 11
2.90575
 21
30.7461
  0
LINE
  8
0
 10
2.90575
 20
30.7461
 11
3
 21
30
  0
LINE
  8
0
 10
3
 20
30
 11
2.90575
 21
29.2539
  0
LINE
  8
0
 10
2.90575
 20
29.2539
 11
2.62891
 21
28.5547
  0
LINE
  8
0
 10
2.62891
 20
28.5547
 11
2.1869
 21
27.9464
  0
LINE
  8
0
 10
2.1869
 20
27.9464
 11
1.60747
 21
27.467
  0
LINE
  8
0
 10
1.60747
 20
27.467
 11
0.927048
 21
27.1468
  0
LINE
  8
0
 10
0.927048
 20
27.1468
 11
0.18837
 21
27.0059
  0
LINE
  8
0
 10
0.18837
 20
27.0059
 11
-0.562134
 21
27.0531
  0
LINE
  8
0
 10
-0.562134
 20
-32.9469
 11
-1.27733
 21
-32.7145
  0
LINE
  8
0
 10
-1.27733
 20
-32.7145
 11
-1.91226
 21
-32.3115
  0
LINE
  8
0
 10
-1.91226
 20
-32.3115
 11
-2.42705
 21
-31.7634
  0
LINE
  8
0
 10
-2.42705
 20
-31.7634
 11
-2.78932
 21
-31.1044
  0
LINE
  8
0
 10
-2.78932
 20
-31.1044
 11
-2.97633
 21
-30.376
  0
LINE
  8
0
 10
-2.97633
 20
-30.376
 11
-2.97633
 21
-29.624
  0
LINE
  8
0
 10
-2.97633
 20
-29.624
 11
-2.78932
 21
-28.8956
  0
LINE
  8
0
 10
-2.78932
 20
-28.8956
 11
-2.42705
 21
-28.2366
  0
LINE
  8
0
 10
-2.42705
 20
-28.2366
 11
-1.91226
 21
-27.6884
  0
LINE
  8
0
 10
-1.91226
 20
-27.6884
 11
-1.27733
 21
-27.2855
  0
LINE
  8
0
 10
-1.27733
 20
-27.2855
 11
-0.562134
 21
-27.0531
  0
LINE
  8
0
 10
-0.562134
 20
-27.0531
 11
0.18837
 21
-27.0059
  0
LINE
  8
0
 10
0.18837
 20
-27.0059
 11
0.927048
 21
-27.1468
  0
LINE
  8
0
 10
0.927048
 20
-27.1468
 11
1.60747
 21
-27.467
  0
LINE
  8
0
 10
1.60747
 20
-27.467
 11
2.1869
 21
-27.9464
  0
LINE
  8
0
 10
2.1869
 20
-27.9464
 11
2.62891
 21
-28.5547
  0
LINE
  8
0
 10
2.62891
 20
-28.5547
 11
2.90575
 21
-29.2539
  0
LINE
  8
0
 10
2.90575
 20
-29.2539
 11
3
 21
-30
  0
LINE
  8
0
 10
3
 20
-30
 11
2.90575
 21
-30.7461
  0
LINE
  8
0
 10
2.90575
 20
-30.7461
 11
2.62891
 21
-31.4453
  0
LINE
  8
0
 10
2.62891
 20
-31.4453
 11
2.1869
 21
-32.0536
  0
LINE
  8
0
 10
2.1869
 20
-32.0536
 11
1.60747
 21
-32.533
  0
LINE
  8
0
 10
1.60747
 20
-32.533
 11
0.927048
 21
-32.8532
  0
LINE
  8
0
 10
0.927048
 20
-32.8532
 11
0.18837
 21
-32.9941
  0
LINE
  8
0
 10
0.18837
 20
-32.9941
 11
-0.562134
 21
-32.9469
  0
ENDSEC
  0
SECTION
  2
OBJECTS
  0
DICTIONARY
  0
ENDSEC
  0
EOF
