<?xml version="1.0" standalone="no"?>
<!DOCTYPE svg PUBLIC "-//W3C//DTD SVG 1.1//EN" "http://www.w3.org/Graphics/SVG/1.1/DTD/svg11.dtd">
<svg width="102mm" height="72mm" viewBox="-51 -36 102 72" xmlns="http://www.w3.org/2000/svg" version="1.1">
<title>OpenSCAD Model</title>
<path d="
M 47.2435,35.8429 L 48.4088,35.3815 L 49.4227,34.6448 L 50.2216,33.6791 L 50.7553,32.5451 L 51,31
 L 51,-31 L 50.8429,-32.2435 L 50.3815,-33.4088 L 49.6448,-34.4227 L 48.6791,-35.2216 L 47.5451,-35.7553
 L 46,-36 L -46,-36 L -47.2435,-35.8429 L -48.4088,-35.3815 L -49.4227,-34.6448 L -50.2216,-33.6791
 L -50.7553,-32.5451 L -51,-31 L -51,31 L -50.8429,32.2435 L -50.3815,33.4088 L -49.6448,34.4227
 L -48.6791,35.2216 L -47.5451,35.7553 L -46,36 L 46,36 z
M -38.5621,-27.0531 L -39.2773,-27.2855 L -39.9123,-27.6884 L -40.427,-28.2366 L -40.7893,-28.8956 L -40.9763,-29.624
 L -40.9763,-30.376 L -40.7893,-31.1044 L -40.427,-31.7634 L -39.9123,-32.3115 L -39.2773,-32.7145 L -38.5621,-32.9469
 L -37.8116,-32.9941 L -37.0729,-32.8532 L -36.3925,-32.533 L -35.8131,-32.0536 L -35.3711,-31.4453 L -35.0942,-30.7461
 L -35,-30 L -35.0942,-29.2539 L -35.3711,-28.5547 L -35.8131,-27.9464 L -36.3925,-27.467 L -37.0729,-27.1468
 L -37.8116,-27.0059 z
M -15.5621,-27.0531 L -16.2773,-27.2855 L -16.9123,-27.6884 L -17.427,-28.2366 L -17.7893,-28.8956 L -17.9763,-29.624
 L -17.9763,-30.376 L -17.7893,-31.1044 L -17.427,-31.7634 L -16.9123,-32.3115 L -16.2773,-32.7145 L -15.5621,-32.9469
 L -14.8116,-32.9941 L -14.0729,-32.8532 L -13.3925,-32.533 L -12.8131,-32.0536 L -12.3711,-31.4453 L -12.0942,-30.7461
 L -12,-30 L -12.0942,-29.2539 L -12.3711,-28.5547 L -12.8131,-27.9464 L -13.3925,-27.467 L -14.0729,-27.1468
 L -14.8116,-27.0059 z
M 41.4379,-27.0531 L 40.7227,-27.2855 L 40.0877,-27.6884 L 39.5729,-28.2366 L 39.2107,-28.8956 L 39.0237,-29.624
 L 39.0237,-30.376 L 39.2107,-31.1044 L 39.5729,-31.7634 L 40.0877,-32.3115 L 40.7227,-32.7145 L 41.4379,-32.9469
 L 42.1884,-32.9941 L 42.927,-32.8532 L 43.6075,-32.533 L 44.1869,-32.0536 L 44.6289,-31.4453 L 44.9057,-30.7461
 L 45,-30 L 44.9057,-29.2539 L 44.6289,-28.5547 L 44.1869,-27.9464 L 43.6075,-27.467 L 42.927,-27.1468
 L 42.1884,-27.0059 z
M 14.4379,-27.0531 L 13.7227,-27.2855 L 13.0877,-27.6884 L 12.5729,-28.2366 L 12.2107,-28.8956 L 12.0237,-29.624
 L 12.0237,-30.376 L 12.2107,-31.1044 L 12.5729,-31.7634 L 13.0877,-32.3115 L 13.7227,-32.7145 L 14.4379,-32.9469
 L 15.1884,-32.9941 L 15.927,-32.8532 L 16.6075,-32.533 L 17.1869,-32.0536 L 17.6289,-31.4453 L 17.9057,-30.7461
 L 18,-30 L 17.9057,-29.2539 L 17.6289,-28.5547 L 17.1869,-27.9464 L 16.6075,-27.467 L 15.927,-27.1468
 L 15.1884,-27.0059 z
M 37.6789,10.9734 L 37.3213,10.8572 L 37.0039,10.6558 L 36.7465,10.3817 L 36.5653,10.0522 L 36.4718,9.68799
 L 36.4718,9.5 L -26.46,9.5 L -26.5071,9.87303 L -26.6455,10.2226 L -26.8665,10.5268 L -27.1562,10.7665
 L -27.4965,10.9266 L -27.8658,10.997 L -28.2411,10.9734 L -28.5987,10.8572 L -28.9161,10.6558 L -29.1735,10.3817
 L -29.3547,10.0522 L -29.4482,9.68799 L -29.4482,9.312 L -29.3547,8.9478 L -29.1735,8.61832 L -28.9161,8.34422
 L -28.5987,8.14275 L -28.2411,8.02657 L -27.96,8.00888 L -27.96,7.69611 L -28.2411,7.67842 L -28.5987,7.56223
 L -28.9161,7.36076 L -29.1735,7.08667 L -29.3547,6.75717 L -29.4482,6.39299 L -29.4482,6.20499 L -41.65,6.20499
 L -41.6971,6.57803 L -41.8355,6.92763 L -42.0565,7.23181 L -42.3463,7.47148 L -42.6865,7.63158 L -43.0558,7.70203
 L -43.4311,7.67842 L -43.7887,7.56223 L -44.1061,7.36076 L -44.3635,7.08667 L -44.5447,6.75717 L -44.6382,6.39299
 L -44.6382,6.017 L -44.5447,5.6528 L -44.3635,5.32332 L -44.1061,5.04922 L -43.7887,4.84775 L -43.4311,4.73157
 L -43.15,4.71388 L -43.15,-4.71388 L -43.4311,-4.73157 L -43.7887,-4.84775 L -44.1061,-5.04922 L -44.3635,-5.32332
 L -44.5447,-5.6528 L -44.6382,-6.017 L -44.6382,-6.39299 L -44.5447,-6.75717 L -44.3635,-7.08667 L -44.1061,-7.36076
 L -43.7887,-7.56223 L -43.4311,-7.67842 L -43.0558,-7.70203 L -42.6865,-7.63158 L -42.3463,-7.47148 L -42.0565,-7.23181
 L -41.8355,-6.92763 L -41.6971,-6.57803 L -41.65,-6.20499 L -29.4482,-6.20499 L -29.4482,-6.39299 L -29.3547,-6.75717
 L -29.1735,-7.08667 L -28.9161,-7.36076 L -28.5987,-7.56223 L -28.2411,-7.67842 L -27.96,-7.69611 L -27.96,-8.00888
 L -28.2411,-8.02657 L -28.5987,-8.14275 L -28.9161,-8.34422 L -29.1735,-8.61832 L -29.3547,-8.9478 L -29.4482,-9.312
 L -29.4482,-9.68799 L -29.3547,-10.0522 L -29.1735,-10.3817 L -28.9161,-10.6558 L -28.5987,-10.8572 L -28.2411,-10.9734
 L -27.8658,-10.997 L -27.4965,-10.9266 L -27.1562,-10.7665 L -26.8665,-10.5268 L -26.6455,-10.2226 L -26.5071,-9.87303
 L -26.46,-9.5 L 36.4718,-9.5 L 36.4718,-9.68799 L 36.5653,-10.0522 L 36.7465,-10.3817 L 37.0039,-10.6558
 L 37.3213,-10.8572 L 37.6789,-10.9734 L 38.0542,-10.997 L 38.4235,-10.9266 L 38.7637,-10.7665 L 39.0535,-10.5268
 L 39.2745,-10.2226 L 39.4129,-9.87303 L 39.46,-9.5 L 39.4129,-9.12695 L 39.2745,-8.77736 L 39.0535,-8.47318
 L 38.7637,-8.23351 L 38.4235,-8.07341 L 38.0542,-8.00294 L 37.96,-8.00888 L 37.96,-4.7411 L 38.0542,-4.74704
 L 38.4235,-4.67657 L 38.7637,-4.51648 L 39.0535,-4.27681 L 39.2745,-3.97263 L 39.4129,-3.62303 L 39.46,-3.25
 L 42.7718,-3.25 L 42.7718,-3.43799 L 42.8653,-3.80219 L 43.0465,-4.13167 L 43.3039,-4.40576 L 43.6213,-4.60724
 L 43.9789,-4.72342 L 44.3542,-4.74704 L 44.7235,-4.67657 L 45.0637,-4.51648 L 45.3534,-4.27681 L 45.5744,-3.97263
 L 45.7129,-3.62303 L 45.76,-3.25 L 45.7129,-2.87695 L 45.5744,-2.52736 L 45.3534,-2.22318 L 45.0637,-1.98351
 L 44.7235,-1.82341 L 44.3542,-1.75294 L 44.26,-1.75888 L 44.26,1.75888 L 44.3542,1.75294 L 44.7235,1.82341
 L 45.0637,1.98351 L 45.3534,2.22318 L 45.5744,2.52736 L 45.7129,2.87695 L 45.76,3.25 L 45.7129,3.62303
 L 45.5744,3.97263 L 45.3534,4.27681 L 45.0637,4.51648 L 44.7235,4.67657 L 44.3542,4.74704 L 43.9789,4.72342
 L 43.6213,4.60724 L 43.3039,4.40576 L 43.0465,4.13167 L 42.8653,3.80219 L 42.7718,3.43799 L 42.7718,3.25
 L 39.46,3.25 L 39.4129,3.62303 L 39.2745,3.97263 L 39.0535,4.27681 L 38.7637,4.51648 L 38.4235,4.67657
 L 38.0542,4.74704 L 37.96,4.7411 L 37.96,8.00888 L 38.0542,8.00294 L 38.4235,8.07341 L 38.7637,8.23351
 L 39.0535,8.47318 L 39.2745,8.77736 L 39.4129,9.12695 L 39.46,9.5 L 39.4129,9.87303 L 39.2745,10.2226
 L 39.0535,10.5268 L 38.7637,10.7665 L 38.4235,10.9266 L 38.0542,10.997 z
M -38.5621,32.9469 L -39.2773,32.7145 L -39.9123,32.3115 L -40.427,31.7634 L -40.7893,31.1044 L -40.9763,30.376
 L -40.9763,29.624 L -40.7893,28.8956 L -40.427,28.2366 L -39.9123,27.6884 L -39.2773,27.2855 L -38.5621,27.0531
 L -37.8116,27.0059 L -37.0729,27.1468 L -36.3925,27.467 L -35.8131,27.9464 L -35.3711,28.5547 L -35.0942,29.2539
 L -35,30 L -35.0942,30.7461 L -35.3711,31.4453 L -35.8131,32.0536 L -36.3925,32.533 L -37.0729,32.8532
 L -37.8116,32.9941 z
M 14.4379,32.9469 L 13.7227,32.7145 L 13.0877,32.3115 L 12.5729,31.7634 L 12.2107,31.1044 L 12.0237,30.376
 L 12.0237,29.624 L 12.2107,28.8956 L 12.5729,28.2366 L 13.0877,27.6884 L 13.7227,27.2855 L 14.4379,27.0531
 L 15.1884,27.0059 L 15.927,27.1468 L 16.6075,27.467 L 17.1869,27.9464 L 17.6289,28.5547 L 17.9057,29.2539
 L 18,30 L 17.9057,30.7461 L 17.6289,31.4453 L 17.1869,32.0536 L 16.6075,32.533 L 15.927,32.8532
 L 15.1884,32.9941 z
M 41.4379,32.9469 L 40.7227,32.7145 L 40.0877,32.3115 L 39.5729,31.7634 L 39.2107,31.1044 L 39.0237,30.376
 L 39.0237,29.624 L 39.2107,28.8956 L 39.5729,28.2366 L 40.0877,27.6884 L 40.7227,27.2855 L 41.4379,27.0531
 L 42.1884,27.0059 L 42.927,27.1468 L 43.6075,27.467 L 44.1869,27.9464 L 44.6289,28.5547 L 44.9057,29.2539
 L 45,30 L 44.9057,30.7461 L 44.6289,31.4453 L 44.1869,32.0536 L 43.6075,32.533 L 42.927,32.8532
 L 42.1884,32.9941 z
M -15.5621,32.9469 L -16.2773,32.7145 L -16.9123,32.3115 L -17.427,31.7634 L -17.7893,31.1044 L -17.9763,30.376
 L -17.9763,29.624 L -17.7893,28.8956 L -17.427,28.2366 L -16.9123,27.6884 L -16.2773,27.2855 L -15.5621,27.0531
 L -14.8116,27.0059 L -14.0729,27.1468 L -13.3925,27.467 L -12.8131,27.9464 L -12.3711,28.5547 L -12.0942,29.2539
 L -12,30 L -12.0942,30.7461 L -12.3711,31.4453 L -12.8131,32.0536 L -13.3925,32.533 L -14.0729,32.8532
 L -14.8116,32.9941 z
" stroke="black" fill="lightgray" stroke-width="0.5"/>
</svg>
