solid OpenSCAD_Model
  facet normal 0.587793 -0.809011 0
    outer loop
      vertex 3.40877 -35.3815 -3
      vertex 4.42273 -34.6448 0
      vertex 3.40877 -35.3815 0
    endloop
  endfacet
  facet normal 0.587793 -0.809011 0
    outer loop
      vertex 4.42273 -34.6448 0
      vertex 3.40877 -35.3815 -3
      vertex 4.42273 -34.6448 -3
    endloop
  endfacet
  facet normal 0.368136 -0.929772 0
    outer loop
      vertex 2.24345 -35.8429 -3
      vertex 3.40877 -35.3815 0
      vertex 2.24345 -35.8429 0
    endloop
  endfacet
  facet normal 0.368136 -0.929772 0
    outer loop
      vertex 3.40877 -35.3815 0
      vertex 2.24345 -35.8429 -3
      vertex 3.40877 -35.3815 -3
    endloop
  endfacet
  facet normal -1 0 0
    outer loop
      vertex -6 -31 -3
      vertex -6 31 0
      vertex -6 31 -3
    endloop
  endfacet
  facet normal -1 -0 0
    outer loop
      vertex -6 31 0
      vertex -6 -31 -3
      vertex -6 -31 0
    endloop
  endfacet
  facet normal 0 -1 0
    outer loop
      vertex -1 -36 -3
      vertex 1 -36 0
      vertex -1 -36 0
    endloop
  endfacet
  facet normal 0 -1 -0
    outer loop
      vertex 1 -36 0
      vertex -1 -36 -3
      vertex 1 -36 -3
    endloop
  endfacet
  facet normal 0.992115 0.125333 0
    outer loop
      vertex 6 31 0
      vertex 5.84291 32.2435 -3
      vertex 5.84291 32.2435 0
    endloop
  endfacet
  facet normal 0.992115 0.125333 0
    outer loop
      vertex 5.84291 32.2435 -3
      vertex 6 31 0
      vertex 6 31 -3
    endloop
  endfacet
  facet normal 0 0 1
    outer loop
      vertex 2.36915 27.7752 0
      vertex 6 31 0
      vertex 2.848 28.4343 0
    endloop
  endfacet
  facet normal 0 0 1
    outer loop
      vertex 6 -31 0
      vertex 3.14789 -29.1918 0
      vertex 3.25 -30 0
    endloop
  endfacet
  facet normal 0 0 1
    outer loop
      vertex 6 31 0
      vertex 2.36915 27.7752 0
      vertex 6 -31 0
    endloop
  endfacet
  facet normal 0 0 1
    outer loop
      vertex 6 -31 0
      vertex 2.848 -28.4343 0
      vertex 3.14789 -29.1918 0
    endloop
  endfacet
  facet normal -0 0 1
    outer loop
      vertex 2.36915 -27.7752 0
      vertex 6 -31 0
      vertex 2.36915 27.7752 0
    endloop
  endfacet
  facet normal 0 0 1
    outer loop
      vertex 6 -31 0
      vertex 2.36915 -27.7752 0
      vertex 2.848 -28.4343 0
    endloop
  endfacet
  facet normal -0 0 1
    outer loop
      vertex 1.74144 27.2559 0
      vertex 2.36915 -27.7752 0
      vertex 2.36915 27.7752 0
    endloop
  endfacet
  facet normal 0 0 1
    outer loop
      vertex 1.74144 27.2559 0
      vertex 1.74144 -27.2559 0
      vertex 2.36915 -27.7752 0
    endloop
  endfacet
  facet normal -0 0 1
    outer loop
      vertex 1.0043 26.9091 0
      vertex 1.74144 -27.2559 0
      vertex 1.74144 27.2559 0
    endloop
  endfacet
  facet normal 0 0 1
    outer loop
      vertex 1.0043 26.9091 0
      vertex 1.0043 -26.9091 0
      vertex 1.74144 -27.2559 0
    endloop
  endfacet
  facet normal -0 0 1
    outer loop
      vertex 0.204069 26.7564 0
      vertex 1.0043 -26.9091 0
      vertex 1.0043 26.9091 0
    endloop
  endfacet
  facet normal 0 0 1
    outer loop
      vertex 0.204069 26.7564 0
      vertex 0.204069 -26.7564 0
      vertex 1.0043 -26.9091 0
    endloop
  endfacet
  facet normal 0 0 1
    outer loop
      vertex -0.608989 26.8076 0
      vertex 0.204069 -26.7564 0
      vertex 0.204069 26.7564 0
    endloop
  endfacet
  facet normal 0 0 1
    outer loop
      vertex -0.608989 26.8076 0
      vertex -0.608989 -26.8076 0
      vertex 0.204069 -26.7564 0
    endloop
  endfacet
  facet normal 0 0 1
    outer loop
      vertex -1.38378 27.0593 0
      vertex -0.608989 -26.8076 0
      vertex -0.608989 26.8076 0
    endloop
  endfacet
  facet normal 0 0 1
    outer loop
      vertex -1.38378 27.0593 0
      vertex -1.38378 -27.0593 0
      vertex -0.608989 -26.8076 0
    endloop
  endfacet
  facet normal 0 0 1
    outer loop
      vertex -2.07163 27.4958 0
      vertex -1.38378 -27.0593 0
      vertex -1.38378 27.0593 0
    endloop
  endfacet
  facet normal 0 0 1
    outer loop
      vertex -2.07163 27.4958 0
      vertex -2.07163 -27.4958 0
      vertex -1.38378 -27.0593 0
    endloop
  endfacet
  facet normal 0 0 1
    outer loop
      vertex -6 31 0
      vertex -2.07163 27.4958 0
      vertex -2.6293 28.0897 0
    endloop
  endfacet
  facet normal 0 0 1
    outer loop
      vertex -2.07163 27.4958 0
      vertex -6 31 0
      vertex -2.07163 -27.4958 0
    endloop
  endfacet
  facet normal 0 0 1
    outer loop
      vertex -6 31 0
      vertex -2.6293 28.0897 0
      vertex -3.02177 28.8036 0
    endloop
  endfacet
  facet normal 0 0 1
    outer loop
      vertex -6 -31 0
      vertex -2.07163 -27.4958 0
      vertex -6 31 0
    endloop
  endfacet
  facet normal 0 0 1
    outer loop
      vertex -6 31 0
      vertex -3.02177 28.8036 0
      vertex -3.22437 29.5927 0
    endloop
  endfacet
  facet normal 0 0 1
    outer loop
      vertex -2.07163 -27.4958 0
      vertex -6 -31 0
      vertex -2.6293 -28.0897 0
    endloop
  endfacet
  facet normal 0 0 1
    outer loop
      vertex 3.14789 30.8082 0
      vertex 6 31 0
      vertex 5.84291 32.2435 0
    endloop
  endfacet
  facet normal 0 0 1
    outer loop
      vertex 3.14789 29.1918 0
      vertex 6 31 0
      vertex 3.25 30 0
    endloop
  endfacet
  facet normal 0 0 1
    outer loop
      vertex 2.848 31.5657 0
      vertex 5.84291 32.2435 0
      vertex 5.38153 33.4088 0
    endloop
  endfacet
  facet normal 0 0 1
    outer loop
      vertex 2.848 28.4343 0
      vertex 6 31 0
      vertex 3.14789 29.1918 0
    endloop
  endfacet
  facet normal 0 0 1
    outer loop
      vertex 2.36915 32.2248 0
      vertex 5.38153 33.4088 0
      vertex 4.64484 34.4227 0
    endloop
  endfacet
  facet normal -0 0 1
    outer loop
      vertex 3.14789 -30.8082 0
      vertex 6 -31 0
      vertex 3.25 -30 0
    endloop
  endfacet
  facet normal 0 0 1
    outer loop
      vertex 2.36915 32.2248 0
      vertex 4.64484 34.4227 0
      vertex 3.67914 35.2216 0
    endloop
  endfacet
  facet normal 0 0 1
    outer loop
      vertex 6 -31 0
      vertex 3.14789 -30.8082 0
      vertex 5.75528 -32.5451 0
    endloop
  endfacet
  facet normal -0 0 1
    outer loop
      vertex 2.848 -31.5657 0
      vertex 5.75528 -32.5451 0
      vertex 3.14789 -30.8082 0
    endloop
  endfacet
  facet normal 0 0 1
    outer loop
      vertex 6 31 0
      vertex 3.14789 30.8082 0
      vertex 3.25 30 0
    endloop
  endfacet
  facet normal 0 0 1
    outer loop
      vertex 5.84291 32.2435 0
      vertex 2.848 31.5657 0
      vertex 3.14789 30.8082 0
    endloop
  endfacet
  facet normal 0 0 1
    outer loop
      vertex 1.74144 32.7441 0
      vertex 3.67914 35.2216 0
      vertex 2.54509 35.7553 0
    endloop
  endfacet
  facet normal 0 0 1
    outer loop
      vertex 5.38153 33.4088 0
      vertex 2.36915 32.2248 0
      vertex 2.848 31.5657 0
    endloop
  endfacet
  facet normal 0 0 1
    outer loop
      vertex 3.67914 35.2216 0
      vertex 1.74144 32.7441 0
      vertex 2.36915 32.2248 0
    endloop
  endfacet
  facet normal 0 0 1
    outer loop
      vertex 2.54509 35.7553 0
      vertex 1.0043 33.0909 0
      vertex 1.74144 32.7441 0
    endloop
  endfacet
  facet normal 0 0 1
    outer loop
      vertex 1 36 0
      vertex 1.0043 33.0909 0
      vertex 2.54509 35.7553 0
    endloop
  endfacet
  facet normal 0 0 1
    outer loop
      vertex 1 36 0
      vertex 0.204069 33.2436 0
      vertex 1.0043 33.0909 0
    endloop
  endfacet
  facet normal -0 0 1
    outer loop
      vertex -1 36 0
      vertex 0.204069 33.2436 0
      vertex 1 36 0
    endloop
  endfacet
  facet normal 0 0 1
    outer loop
      vertex 0.204069 33.2436 0
      vertex -1 36 0
      vertex -0.608989 33.1924 0
    endloop
  endfacet
  facet normal -0 0 1
    outer loop
      vertex -2.24345 35.8429 0
      vertex -0.608989 33.1924 0
      vertex -1 36 0
    endloop
  endfacet
  facet normal 0 0 1
    outer loop
      vertex -0.608989 33.1924 0
      vertex -2.24345 35.8429 0
      vertex -1.38378 32.9407 0
    endloop
  endfacet
  facet normal -0 0 1
    outer loop
      vertex -3.40877 35.3815 0
      vertex -1.38378 32.9407 0
      vertex -2.24345 35.8429 0
    endloop
  endfacet
  facet normal 0 0 1
    outer loop
      vertex -1.38378 32.9407 0
      vertex -3.40877 35.3815 0
      vertex -2.07163 32.5042 0
    endloop
  endfacet
  facet normal -0 0 1
    outer loop
      vertex -4.42273 34.6448 0
      vertex -2.07163 32.5042 0
      vertex -3.40877 35.3815 0
    endloop
  endfacet
  facet normal 0 0 1
    outer loop
      vertex -2.07163 32.5042 0
      vertex -4.42273 34.6448 0
      vertex -2.6293 31.9103 0
    endloop
  endfacet
  facet normal 0 0 1
    outer loop
      vertex -6 31 0
      vertex -3.22437 29.5927 0
      vertex -3.22437 30.4073 0
    endloop
  endfacet
  facet normal 0 0 1
    outer loop
      vertex -2.6293 -28.0897 0
      vertex -6 -31 0
      vertex -3.02177 -28.8036 0
    endloop
  endfacet
  facet normal -0 0 1
    outer loop
      vertex -5.75528 32.5451 0
      vertex -2.6293 31.9103 0
      vertex -5.22163 33.6791 0
    endloop
  endfacet
  facet normal -0 0 1
    outer loop
      vertex -5.22163 33.6791 0
      vertex -2.6293 31.9103 0
      vertex -4.42273 34.6448 0
    endloop
  endfacet
  facet normal 0 0 1
    outer loop
      vertex 5.75528 -32.5451 0
      vertex 2.848 -31.5657 0
      vertex 5.22163 -33.6791 0
    endloop
  endfacet
  facet normal -0 0 1
    outer loop
      vertex 2.36915 -32.2248 0
      vertex 5.22163 -33.6791 0
      vertex 2.848 -31.5657 0
    endloop
  endfacet
  facet normal 0 0 1
    outer loop
      vertex 5.22163 -33.6791 0
      vertex 2.36915 -32.2248 0
      vertex 4.42273 -34.6448 0
    endloop
  endfacet
  facet normal -0 0 1
    outer loop
      vertex 1.74144 -32.7441 0
      vertex 4.42273 -34.6448 0
      vertex 2.36915 -32.2248 0
    endloop
  endfacet
  facet normal 0 0 1
    outer loop
      vertex 4.42273 -34.6448 0
      vertex 1.74144 -32.7441 0
      vertex 3.40877 -35.3815 0
    endloop
  endfacet
  facet normal 0 0 1
    outer loop
      vertex 3.40877 -35.3815 0
      vertex 1.74144 -32.7441 0
      vertex 2.24345 -35.8429 0
    endloop
  endfacet
  facet normal -0 0 1
    outer loop
      vertex 1.0043 -33.0909 0
      vertex 2.24345 -35.8429 0
      vertex 1.74144 -32.7441 0
    endloop
  endfacet
  facet normal 0 0 1
    outer loop
      vertex 1.0043 -33.0909 0
      vertex 1 -36 0
      vertex 2.24345 -35.8429 0
    endloop
  endfacet
  facet normal -0 0 1
    outer loop
      vertex 0.204069 -33.2436 0
      vertex 1 -36 0
      vertex 1.0043 -33.0909 0
    endloop
  endfacet
  facet normal 0 0 1
    outer loop
      vertex -1 -36 0
      vertex 0.204069 -33.2436 0
      vertex -0.608989 -33.1924 0
    endloop
  endfacet
  facet normal 0 0 1
    outer loop
      vertex 0.204069 -33.2436 0
      vertex -1 -36 0
      vertex 1 -36 0
    endloop
  endfacet
  facet normal 0 0 1
    outer loop
      vertex -1.38378 -32.9407 0
      vertex -1 -36 0
      vertex -0.608989 -33.1924 0
    endloop
  endfacet
  facet normal 0 0 1
    outer loop
      vertex -3.67914 -35.2216 0
      vertex -1.38378 -32.9407 0
      vertex -2.07163 -32.5042 0
    endloop
  endfacet
  facet normal 0 0 1
    outer loop
      vertex -1.38378 -32.9407 0
      vertex -2.54509 -35.7553 0
      vertex -1 -36 0
    endloop
  endfacet
  facet normal 0 0 1
    outer loop
      vertex -4.64484 -34.4227 0
      vertex -2.07163 -32.5042 0
      vertex -2.6293 -31.9103 0
    endloop
  endfacet
  facet normal 0 0 1
    outer loop
      vertex -5.38153 -33.4088 0
      vertex -2.6293 -31.9103 0
      vertex -3.02177 -31.1964 0
    endloop
  endfacet
  facet normal -0 0 1
    outer loop
      vertex -6 -31 0
      vertex -3.02177 -31.1964 0
      vertex -3.22437 -30.4073 0
    endloop
  endfacet
  facet normal 0 0 1
    outer loop
      vertex -1.38378 -32.9407 0
      vertex -3.67914 -35.2216 0
      vertex -2.54509 -35.7553 0
    endloop
  endfacet
  facet normal 0 0 1
    outer loop
      vertex -3.02177 -28.8036 0
      vertex -6 -31 0
      vertex -3.22437 -29.5927 0
    endloop
  endfacet
  facet normal 0 0 1
    outer loop
      vertex -2.6293 31.9103 0
      vertex -5.75528 32.5451 0
      vertex -3.02177 31.1964 0
    endloop
  endfacet
  facet normal 0 0 1
    outer loop
      vertex -3.22437 -29.5927 0
      vertex -6 -31 0
      vertex -3.22437 -30.4073 0
    endloop
  endfacet
  facet normal 0 0 1
    outer loop
      vertex -6 31 0
      vertex -3.02177 31.1964 0
      vertex -5.75528 32.5451 0
    endloop
  endfacet
  facet normal 0 0 1
    outer loop
      vertex -3.02177 -31.1964 0
      vertex -6 -31 0
      vertex -5.84291 -32.2435 0
    endloop
  endfacet
  facet normal 0 0 1
    outer loop
      vertex -3.02177 31.1964 0
      vertex -6 31 0
      vertex -3.22437 30.4073 0
    endloop
  endfacet
  facet normal 0 0 1
    outer loop
      vertex -2.07163 -32.5042 0
      vertex -4.64484 -34.4227 0
      vertex -3.67914 -35.2216 0
    endloop
  endfacet
  facet normal 0 0 1
    outer loop
      vertex -2.6293 -31.9103 0
      vertex -5.38153 -33.4088 0
      vertex -4.64484 -34.4227 0
    endloop
  endfacet
  facet normal 0 0 1
    outer loop
      vertex -3.02177 -31.1964 0
      vertex -5.84291 -32.2435 0
      vertex -5.38153 -33.4088 0
    endloop
  endfacet
  facet normal -0.125346 0.992113 0
    outer loop
      vertex -1 36 -3
      vertex -2.24345 35.8429 0
      vertex -1 36 0
    endloop
  endfacet
  facet normal -0.125346 0.992113 0
    outer loop
      vertex -2.24345 35.8429 0
      vertex -1 36 -3
      vertex -2.24345 35.8429 -3
    endloop
  endfacet
  facet normal 1 -0 0
    outer loop
      vertex 6 -31 0
      vertex 6 31 -3
      vertex 6 31 0
    endloop
  endfacet
  facet normal 1 0 0
    outer loop
      vertex 6 31 -3
      vertex 6 -31 0
      vertex 6 -31 -3
    endloop
  endfacet
  facet normal 0.125346 -0.992113 0
    outer loop
      vertex 1 -36 -3
      vertex 2.24345 -35.8429 0
      vertex 1 -36 0
    endloop
  endfacet
  facet normal 0.125346 -0.992113 0
    outer loop
      vertex 2.24345 -35.8429 0
      vertex 1 -36 -3
      vertex 2.24345 -35.8429 -3
    endloop
  endfacet
  facet normal -0.587793 0.809011 0
    outer loop
      vertex -3.40877 35.3815 -3
      vertex -4.42273 34.6448 0
      vertex -3.40877 35.3815 0
    endloop
  endfacet
  facet normal -0.587793 0.809011 0
    outer loop
      vertex -4.42273 34.6448 0
      vertex -3.40877 35.3815 -3
      vertex -4.42273 34.6448 -3
    endloop
  endfacet
  facet normal -0.992115 -0.125333 0
    outer loop
      vertex -5.84291 -32.2435 -3
      vertex -6 -31 0
      vertex -6 -31 -3
    endloop
  endfacet
  facet normal -0.992115 -0.125333 0
    outer loop
      vertex -6 -31 0
      vertex -5.84291 -32.2435 -3
      vertex -5.84291 -32.2435 0
    endloop
  endfacet
  facet normal 0 0 -1
    outer loop
      vertex 2.36915 -27.7752 -3
      vertex 6 -31 -3
      vertex 2.848 -28.4343 -3
    endloop
  endfacet
  facet normal 0 0 -1
    outer loop
      vertex 6 31 -3
      vertex 3.14789 29.1918 -3
      vertex 3.25 30 -3
    endloop
  endfacet
  facet normal 0 0 -1
    outer loop
      vertex 6 -31 -3
      vertex 2.36915 -27.7752 -3
      vertex 6 31 -3
    endloop
  endfacet
  facet normal 0 0 -1
    outer loop
      vertex 6 31 -3
      vertex 2.848 28.4343 -3
      vertex 3.14789 29.1918 -3
    endloop
  endfacet
  facet normal 0 0 -1
    outer loop
      vertex 2.36915 27.7752 -3
      vertex 6 31 -3
      vertex 2.36915 -27.7752 -3
    endloop
  endfacet
  facet normal 0 0 -1
    outer loop
      vertex 6 31 -3
      vertex 2.36915 27.7752 -3
      vertex 2.848 28.4343 -3
    endloop
  endfacet
  facet normal 0 0 -1
    outer loop
      vertex 1.74144 -27.2559 -3
      vertex 2.36915 27.7752 -3
      vertex 2.36915 -27.7752 -3
    endloop
  endfacet
  facet normal 0 0 -1
    outer loop
      vertex 1.74144 -27.2559 -3
      vertex 1.74144 27.2559 -3
      vertex 2.36915 27.7752 -3
    endloop
  endfacet
  facet normal 0 0 -1
    outer loop
      vertex 1.0043 -26.9091 -3
      vertex 1.74144 27.2559 -3
      vertex 1.74144 -27.2559 -3
    endloop
  endfacet
  facet normal 0 0 -1
    outer loop
      vertex 1.0043 -26.9091 -3
      vertex 1.0043 26.9091 -3
      vertex 1.74144 27.2559 -3
    endloop
  endfacet
  facet normal 0 0 -1
    outer loop
      vertex 0.204069 -26.7564 -3
      vertex 1.0043 26.9091 -3
      vertex 1.0043 -26.9091 -3
    endloop
  endfacet
  facet normal 0 0 -1
    outer loop
      vertex 0.204069 -26.7564 -3
      vertex 0.204069 26.7564 -3
      vertex 1.0043 26.9091 -3
    endloop
  endfacet
  facet normal 0 0 -1
    outer loop
      vertex -0.608989 -26.8076 -3
      vertex 0.204069 26.7564 -3
      vertex 0.204069 -26.7564 -3
    endloop
  endfacet
  facet normal 0 0 -1
    outer loop
      vertex -0.608989 -26.8076 -3
      vertex -0.608989 26.8076 -3
      vertex 0.204069 26.7564 -3
    endloop
  endfacet
  facet normal 0 0 -1
    outer loop
      vertex -1.38378 -27.0593 -3
      vertex -0.608989 26.8076 -3
      vertex -0.608989 -26.8076 -3
    endloop
  endfacet
  facet normal 0 0 -1
    outer loop
      vertex -1.38378 -27.0593 -3
      vertex -1.38378 27.0593 -3
      vertex -0.608989 26.8076 -3
    endloop
  endfacet
  facet normal 0 0 -1
    outer loop
      vertex -2.07163 -27.4958 -3
      vertex -1.38378 27.0593 -3
      vertex -1.38378 -27.0593 -3
    endloop
  endfacet
  facet normal 0 0 -1
    outer loop
      vertex -2.07163 -27.4958 -3
      vertex -2.07163 27.4958 -3
      vertex -1.38378 27.0593 -3
    endloop
  endfacet
  facet normal 0 0 -1
    outer loop
      vertex -6 -31 -3
      vertex -2.07163 -27.4958 -3
      vertex -2.6293 -28.0897 -3
    endloop
  endfacet
  facet normal -0 0 -1
    outer loop
      vertex -2.07163 -27.4958 -3
      vertex -6 -31 -3
      vertex -2.07163 27.4958 -3
    endloop
  endfacet
  facet normal 0 0 -1
    outer loop
      vertex -6 -31 -3
      vertex -2.6293 -28.0897 -3
      vertex -3.02177 -28.8036 -3
    endloop
  endfacet
  facet normal 0 0 -1
    outer loop
      vertex -6 31 -3
      vertex -2.07163 27.4958 -3
      vertex -6 -31 -3
    endloop
  endfacet
  facet normal 0 0 -1
    outer loop
      vertex -6 -31 -3
      vertex -3.02177 -28.8036 -3
      vertex -3.22437 -29.5927 -3
    endloop
  endfacet
  facet normal 0 0 -1
    outer loop
      vertex -2.07163 27.4958 -3
      vertex -6 31 -3
      vertex -2.6293 28.0897 -3
    endloop
  endfacet
  facet normal 0 0 -1
    outer loop
      vertex 6 -31 -3
      vertex 3.14789 -30.8082 -3
      vertex 3.25 -30 -3
    endloop
  endfacet
  facet normal 0 0 -1
    outer loop
      vertex 4.42273 -34.6448 -3
      vertex 2.848 -31.5657 -3
      vertex 3.14789 -30.8082 -3
    endloop
  endfacet
  facet normal 0 0 -1
    outer loop
      vertex 4.42273 -34.6448 -3
      vertex 2.36915 -32.2248 -3
      vertex 2.848 -31.5657 -3
    endloop
  endfacet
  facet normal 0 0 -1
    outer loop
      vertex 1.74144 -32.7441 -3
      vertex 3.40877 -35.3815 -3
      vertex 2.24345 -35.8429 -3
    endloop
  endfacet
  facet normal 0 0 -1
    outer loop
      vertex 4.42273 -34.6448 -3
      vertex 1.74144 -32.7441 -3
      vertex 2.36915 -32.2248 -3
    endloop
  endfacet
  facet normal 0 0 -1
    outer loop
      vertex 2.24345 -35.8429 -3
      vertex 1.0043 -33.0909 -3
      vertex 1.74144 -32.7441 -3
    endloop
  endfacet
  facet normal 0 0 -1
    outer loop
      vertex 1 -36 -3
      vertex 1.0043 -33.0909 -3
      vertex 2.24345 -35.8429 -3
    endloop
  endfacet
  facet normal 0 0 -1
    outer loop
      vertex 1 -36 -3
      vertex 0.204069 -33.2436 -3
      vertex 1.0043 -33.0909 -3
    endloop
  endfacet
  facet normal 0 0 -1
    outer loop
      vertex -1 -36 -3
      vertex 0.204069 -33.2436 -3
      vertex 1 -36 -3
    endloop
  endfacet
  facet normal -0 0 -1
    outer loop
      vertex 0.204069 -33.2436 -3
      vertex -1 -36 -3
      vertex -0.608989 -33.1924 -3
    endloop
  endfacet
  facet normal 0 0 -1
    outer loop
      vertex -1 -36 -3
      vertex -1.38378 -32.9407 -3
      vertex -0.608989 -33.1924 -3
    endloop
  endfacet
  facet normal 0 0 -1
    outer loop
      vertex -2.54509 -35.7553 -3
      vertex -1.38378 -32.9407 -3
      vertex -1 -36 -3
    endloop
  endfacet
  facet normal 0 0 -1
    outer loop
      vertex -3.67914 -35.2216 -3
      vertex -1.38378 -32.9407 -3
      vertex -2.54509 -35.7553 -3
    endloop
  endfacet
  facet normal -0 0 -1
    outer loop
      vertex -1.38378 -32.9407 -3
      vertex -3.67914 -35.2216 -3
      vertex -2.07163 -32.5042 -3
    endloop
  endfacet
  facet normal 0 0 -1
    outer loop
      vertex -4.64484 -34.4227 -3
      vertex -2.07163 -32.5042 -3
      vertex -3.67914 -35.2216 -3
    endloop
  endfacet
  facet normal -0 0 -1
    outer loop
      vertex -2.07163 -32.5042 -3
      vertex -4.64484 -34.4227 -3
      vertex -2.6293 -31.9103 -3
    endloop
  endfacet
  facet normal 0 0 -1
    outer loop
      vertex -6 -31 -3
      vertex -3.22437 -29.5927 -3
      vertex -3.22437 -30.4073 -3
    endloop
  endfacet
  facet normal 0 0 -1
    outer loop
      vertex -2.6293 28.0897 -3
      vertex -6 31 -3
      vertex -3.02177 28.8036 -3
    endloop
  endfacet
  facet normal 0 0 -1
    outer loop
      vertex -3.22437 29.5927 -3
      vertex -6 31 -3
      vertex -3.22437 30.4073 -3
    endloop
  endfacet
  facet normal 0 0 -1
    outer loop
      vertex -5.38153 -33.4088 -3
      vertex -2.6293 -31.9103 -3
      vertex -4.64484 -34.4227 -3
    endloop
  endfacet
  facet normal -0 0 -1
    outer loop
      vertex -2.6293 -31.9103 -3
      vertex -5.38153 -33.4088 -3
      vertex -3.02177 -31.1964 -3
    endloop
  endfacet
  facet normal 0 0 -1
    outer loop
      vertex -3.02177 28.8036 -3
      vertex -6 31 -3
      vertex -3.22437 29.5927 -3
    endloop
  endfacet
  facet normal 0 0 -1
    outer loop
      vertex -5.84291 -32.2435 -3
      vertex -3.02177 -31.1964 -3
      vertex -5.38153 -33.4088 -3
    endloop
  endfacet
  facet normal 0 -0 -1
    outer loop
      vertex -5.75528 32.5451 -3
      vertex -3.22437 30.4073 -3
      vertex -6 31 -3
    endloop
  endfacet
  facet normal 0 0 -1
    outer loop
      vertex -6 -31 -3
      vertex -3.02177 -31.1964 -3
      vertex -5.84291 -32.2435 -3
    endloop
  endfacet
  facet normal 0 0 -1
    outer loop
      vertex -3.22437 30.4073 -3
      vertex -4.42273 34.6448 -3
      vertex -3.40877 35.3815 -3
    endloop
  endfacet
  facet normal 0 0 -1
    outer loop
      vertex -3.02177 -31.1964 -3
      vertex -6 -31 -3
      vertex -3.22437 -30.4073 -3
    endloop
  endfacet
  facet normal 0 0 -1
    outer loop
      vertex -3.22437 30.4073 -3
      vertex -5.22163 33.6791 -3
      vertex -4.42273 34.6448 -3
    endloop
  endfacet
  facet normal 0 0 -1
    outer loop
      vertex -3.22437 30.4073 -3
      vertex -5.75528 32.5451 -3
      vertex -5.22163 33.6791 -3
    endloop
  endfacet
  facet normal 0 0 -1
    outer loop
      vertex 2.848 -28.4343 -3
      vertex 6 -31 -3
      vertex 3.14789 -29.1918 -3
    endloop
  endfacet
  facet normal 0 0 -1
    outer loop
      vertex 3.14789 -30.8082 -3
      vertex 6 -31 -3
      vertex 5.75528 -32.5451 -3
    endloop
  endfacet
  facet normal 0 0 -1
    outer loop
      vertex 3.14789 -29.1918 -3
      vertex 6 -31 -3
      vertex 3.25 -30 -3
    endloop
  endfacet
  facet normal 0 0 -1
    outer loop
      vertex 3.14789 -30.8082 -3
      vertex 5.75528 -32.5451 -3
      vertex 5.22163 -33.6791 -3
    endloop
  endfacet
  facet normal 0 0 -1
    outer loop
      vertex 3.14789 30.8082 -3
      vertex 6 31 -3
      vertex 3.25 30 -3
    endloop
  endfacet
  facet normal 0 0 -1
    outer loop
      vertex 3.14789 -30.8082 -3
      vertex 5.22163 -33.6791 -3
      vertex 4.42273 -34.6448 -3
    endloop
  endfacet
  facet normal -0 0 -1
    outer loop
      vertex 6 31 -3
      vertex 3.14789 30.8082 -3
      vertex 5.84291 32.2435 -3
    endloop
  endfacet
  facet normal 0 0 -1
    outer loop
      vertex 1.74144 -32.7441 -3
      vertex 4.42273 -34.6448 -3
      vertex 3.40877 -35.3815 -3
    endloop
  endfacet
  facet normal 0 0 -1
    outer loop
      vertex 2.848 31.5657 -3
      vertex 5.84291 32.2435 -3
      vertex 3.14789 30.8082 -3
    endloop
  endfacet
  facet normal -0 0 -1
    outer loop
      vertex 5.84291 32.2435 -3
      vertex 2.848 31.5657 -3
      vertex 5.38153 33.4088 -3
    endloop
  endfacet
  facet normal 0 0 -1
    outer loop
      vertex 2.36915 32.2248 -3
      vertex 5.38153 33.4088 -3
      vertex 2.848 31.5657 -3
    endloop
  endfacet
  facet normal -0 0 -1
    outer loop
      vertex 5.38153 33.4088 -3
      vertex 2.36915 32.2248 -3
      vertex 4.64484 34.4227 -3
    endloop
  endfacet
  facet normal -0 0 -1
    outer loop
      vertex 4.64484 34.4227 -3
      vertex 2.36915 32.2248 -3
      vertex 3.67914 35.2216 -3
    endloop
  endfacet
  facet normal 0 0 -1
    outer loop
      vertex 1.74144 32.7441 -3
      vertex 3.67914 35.2216 -3
      vertex 2.36915 32.2248 -3
    endloop
  endfacet
  facet normal -0 0 -1
    outer loop
      vertex 3.67914 35.2216 -3
      vertex 1.74144 32.7441 -3
      vertex 2.54509 35.7553 -3
    endloop
  endfacet
  facet normal 0 0 -1
    outer loop
      vertex 1.0043 33.0909 -3
      vertex 2.54509 35.7553 -3
      vertex 1.74144 32.7441 -3
    endloop
  endfacet
  facet normal 0 0 -1
    outer loop
      vertex 1.0043 33.0909 -3
      vertex 1 36 -3
      vertex 2.54509 35.7553 -3
    endloop
  endfacet
  facet normal 0 0 -1
    outer loop
      vertex 0.204069 33.2436 -3
      vertex 1 36 -3
      vertex 1.0043 33.0909 -3
    endloop
  endfacet
  facet normal 0 0 -1
    outer loop
      vertex -1 36 -3
      vertex 0.204069 33.2436 -3
      vertex -0.608989 33.1924 -3
    endloop
  endfacet
  facet normal 0 0 -1
    outer loop
      vertex 0.204069 33.2436 -3
      vertex -1 36 -3
      vertex 1 36 -3
    endloop
  endfacet
  facet normal 0 0 -1
    outer loop
      vertex -2.24345 35.8429 -3
      vertex -0.608989 33.1924 -3
      vertex -1.38378 32.9407 -3
    endloop
  endfacet
  facet normal 0 0 -1
    outer loop
      vertex -3.40877 35.3815 -3
      vertex -1.38378 32.9407 -3
      vertex -2.07163 32.5042 -3
    endloop
  endfacet
  facet normal 0 0 -1
    outer loop
      vertex -0.608989 33.1924 -3
      vertex -2.24345 35.8429 -3
      vertex -1 36 -3
    endloop
  endfacet
  facet normal 0 0 -1
    outer loop
      vertex -3.40877 35.3815 -3
      vertex -2.07163 32.5042 -3
      vertex -2.6293 31.9103 -3
    endloop
  endfacet
  facet normal 0 0 -1
    outer loop
      vertex -3.40877 35.3815 -3
      vertex -2.6293 31.9103 -3
      vertex -3.02177 31.1964 -3
    endloop
  endfacet
  facet normal 0 0 -1
    outer loop
      vertex -3.40877 35.3815 -3
      vertex -3.02177 31.1964 -3
      vertex -3.22437 30.4073 -3
    endloop
  endfacet
  facet normal 0 0 -1
    outer loop
      vertex -1.38378 32.9407 -3
      vertex -3.40877 35.3815 -3
      vertex -2.24345 35.8429 -3
    endloop
  endfacet
  facet normal -0.929775 -0.368128 0
    outer loop
      vertex -5.38153 -33.4088 -3
      vertex -5.84291 -32.2435 0
      vertex -5.84291 -32.2435 -3
    endloop
  endfacet
  facet normal -0.929775 -0.368128 0
    outer loop
      vertex -5.84291 -32.2435 0
      vertex -5.38153 -33.4088 -3
      vertex -5.38153 -33.4088 0
    endloop
  endfacet
  facet normal -0.808999 -0.587811 0
    outer loop
      vertex -4.64484 -34.4227 -3
      vertex -5.38153 -33.4088 0
      vertex -5.38153 -33.4088 -3
    endloop
  endfacet
  facet normal -0.808999 -0.587811 0
    outer loop
      vertex -5.38153 -33.4088 0
      vertex -4.64484 -34.4227 -3
      vertex -4.64484 -34.4227 0
    endloop
  endfacet
  facet normal -0.425816 -0.90481 0
    outer loop
      vertex -3.67914 -35.2216 -3
      vertex -2.54509 -35.7553 0
      vertex -3.67914 -35.2216 0
    endloop
  endfacet
  facet normal -0.425816 -0.90481 -0
    outer loop
      vertex -2.54509 -35.7553 0
      vertex -3.67914 -35.2216 -3
      vertex -2.54509 -35.7553 -3
    endloop
  endfacet
  facet normal -0.368136 0.929772 0
    outer loop
      vertex -2.24345 35.8429 -3
      vertex -3.40877 35.3815 0
      vertex -2.24345 35.8429 0
    endloop
  endfacet
  facet normal -0.368136 0.929772 0
    outer loop
      vertex -3.40877 35.3815 0
      vertex -2.24345 35.8429 -3
      vertex -3.40877 35.3815 -3
    endloop
  endfacet
  facet normal 0.929775 0.368128 0
    outer loop
      vertex 5.84291 32.2435 0
      vertex 5.38153 33.4088 -3
      vertex 5.38153 33.4088 0
    endloop
  endfacet
  facet normal 0.929775 0.368128 0
    outer loop
      vertex 5.38153 33.4088 -3
      vertex 5.84291 32.2435 0
      vertex 5.84291 32.2435 -3
    endloop
  endfacet
  facet normal 0.425816 0.90481 -0
    outer loop
      vertex 3.67914 35.2216 -3
      vertex 2.54509 35.7553 0
      vertex 3.67914 35.2216 0
    endloop
  endfacet
  facet normal 0.425816 0.90481 0
    outer loop
      vertex 2.54509 35.7553 0
      vertex 3.67914 35.2216 -3
      vertex 2.54509 35.7553 -3
    endloop
  endfacet
  facet normal 0.156423 0.98769 -0
    outer loop
      vertex 2.54509 35.7553 -3
      vertex 1 36 0
      vertex 2.54509 35.7553 0
    endloop
  endfacet
  facet normal 0.156423 0.98769 0
    outer loop
      vertex 1 36 0
      vertex 2.54509 35.7553 -3
      vertex 1 36 -3
    endloop
  endfacet
  facet normal 0 1 -0
    outer loop
      vertex 1 36 -3
      vertex -1 36 0
      vertex 1 36 0
    endloop
  endfacet
  facet normal 0 1 0
    outer loop
      vertex -1 36 0
      vertex 1 36 -3
      vertex -1 36 -3
    endloop
  endfacet
  facet normal 0.987688 -0.156435 0
    outer loop
      vertex 5.75528 -32.5451 0
      vertex 6 -31 -3
      vertex 6 -31 0
    endloop
  endfacet
  facet normal 0.987688 -0.156435 0
    outer loop
      vertex 6 -31 -3
      vertex 5.75528 -32.5451 0
      vertex 5.75528 -32.5451 -3
    endloop
  endfacet
  facet normal 0.770512 -0.637426 0
    outer loop
      vertex 4.42273 -34.6448 0
      vertex 5.22163 -33.6791 -3
      vertex 5.22163 -33.6791 0
    endloop
  endfacet
  facet normal 0.770512 -0.637426 0
    outer loop
      vertex 5.22163 -33.6791 -3
      vertex 4.42273 -34.6448 0
      vertex 4.42273 -34.6448 -3
    endloop
  endfacet
  facet normal -0.987688 0.156435 0
    outer loop
      vertex -6 31 -3
      vertex -5.75528 32.5451 0
      vertex -5.75528 32.5451 -3
    endloop
  endfacet
  facet normal -0.987688 0.156435 0
    outer loop
      vertex -5.75528 32.5451 0
      vertex -6 31 -3
      vertex -6 31 0
    endloop
  endfacet
  facet normal -0.904818 0.425799 0
    outer loop
      vertex -5.75528 32.5451 -3
      vertex -5.22163 33.6791 0
      vertex -5.22163 33.6791 -3
    endloop
  endfacet
  facet normal -0.904818 0.425799 0
    outer loop
      vertex -5.22163 33.6791 0
      vertex -5.75528 32.5451 -3
      vertex -5.75528 32.5451 0
    endloop
  endfacet
  facet normal -0.770512 0.637426 0
    outer loop
      vertex -5.22163 33.6791 -3
      vertex -4.42273 34.6448 0
      vertex -4.42273 34.6448 -3
    endloop
  endfacet
  facet normal -0.770512 0.637426 0
    outer loop
      vertex -4.42273 34.6448 0
      vertex -5.22163 33.6791 -3
      vertex -5.22163 33.6791 0
    endloop
  endfacet
  facet normal -0.637426 -0.770512 0
    outer loop
      vertex -4.64484 -34.4227 -3
      vertex -3.67914 -35.2216 0
      vertex -4.64484 -34.4227 0
    endloop
  endfacet
  facet normal -0.637426 -0.770512 -0
    outer loop
      vertex -3.67914 -35.2216 0
      vertex -4.64484 -34.4227 -3
      vertex -3.67914 -35.2216 -3
    endloop
  endfacet
  facet normal -0.156423 -0.98769 0
    outer loop
      vertex -2.54509 -35.7553 -3
      vertex -1 -36 0
      vertex -2.54509 -35.7553 0
    endloop
  endfacet
  facet normal -0.156423 -0.98769 -0
    outer loop
      vertex -1 -36 0
      vertex -2.54509 -35.7553 -3
      vertex -1 -36 -3
    endloop
  endfacet
  facet normal 0.637426 0.770512 -0
    outer loop
      vertex 4.64484 34.4227 -3
      vertex 3.67914 35.2216 0
      vertex 4.64484 34.4227 0
    endloop
  endfacet
  facet normal 0.637426 0.770512 0
    outer loop
      vertex 3.67914 35.2216 0
      vertex 4.64484 34.4227 -3
      vertex 3.67914 35.2216 -3
    endloop
  endfacet
  facet normal 0.808999 0.587811 0
    outer loop
      vertex 5.38153 33.4088 0
      vertex 4.64484 34.4227 -3
      vertex 4.64484 34.4227 0
    endloop
  endfacet
  facet normal 0.808999 0.587811 0
    outer loop
      vertex 4.64484 34.4227 -3
      vertex 5.38153 33.4088 0
      vertex 5.38153 33.4088 -3
    endloop
  endfacet
  facet normal 0.904818 -0.425799 0
    outer loop
      vertex 5.22163 -33.6791 0
      vertex 5.75528 -32.5451 -3
      vertex 5.75528 -32.5451 0
    endloop
  endfacet
  facet normal 0.904818 -0.425799 0
    outer loop
      vertex 5.75528 -32.5451 -3
      vertex 5.22163 -33.6791 0
      vertex 5.22163 -33.6791 -3
    endloop
  endfacet
  facet normal -0.992113 0.125346 0
    outer loop
      vertex 3.14789 29.1918 -3
      vertex 3.25 30 0
      vertex 3.25 30 -3
    endloop
  endfacet
  facet normal -0.992113 0.125346 0
    outer loop
      vertex 3.25 30 0
      vertex 3.14789 29.1918 -3
      vertex 3.14789 29.1918 0
    endloop
  endfacet
  facet normal -0.992113 -0.125346 0
    outer loop
      vertex 3.25 30 -3
      vertex 3.14789 30.8082 0
      vertex 3.14789 30.8082 -3
    endloop
  endfacet
  facet normal -0.992113 -0.125346 0
    outer loop
      vertex 3.14789 30.8082 0
      vertex 3.25 30 -3
      vertex 3.25 30 0
    endloop
  endfacet
  facet normal 1 -0 0
    outer loop
      vertex -3.22437 29.5927 0
      vertex -3.22437 30.4073 -3
      vertex -3.22437 30.4073 0
    endloop
  endfacet
  facet normal 1 0 0
    outer loop
      vertex -3.22437 30.4073 -3
      vertex -3.22437 29.5927 0
      vertex -3.22437 29.5927 -3
    endloop
  endfacet
  facet normal 0.0628476 0.998023 -0
    outer loop
      vertex 0.204069 26.7564 -3
      vertex -0.608989 26.8076 0
      vertex 0.204069 26.7564 0
    endloop
  endfacet
  facet normal 0.0628476 0.998023 0
    outer loop
      vertex -0.608989 26.8076 0
      vertex 0.204069 26.7564 -3
      vertex -0.608989 26.8076 -3
    endloop
  endfacet
  facet normal 0.0628476 -0.998023 0
    outer loop
      vertex -0.608989 33.1924 -3
      vertex 0.204069 33.2436 0
      vertex -0.608989 33.1924 0
    endloop
  endfacet
  facet normal 0.0628476 -0.998023 0
    outer loop
      vertex 0.204069 33.2436 0
      vertex -0.608989 33.1924 -3
      vertex 0.204069 33.2436 -3
    endloop
  endfacet
  facet normal -0.637434 0.770505 0
    outer loop
      vertex 2.36915 27.7752 -3
      vertex 1.74144 27.2559 0
      vertex 2.36915 27.7752 0
    endloop
  endfacet
  facet normal -0.637434 0.770505 0
    outer loop
      vertex 1.74144 27.2559 0
      vertex 2.36915 27.7752 -3
      vertex 1.74144 27.2559 -3
    endloop
  endfacet
  facet normal -0.809025 0.587774 0
    outer loop
      vertex 2.36915 27.7752 -3
      vertex 2.848 28.4343 0
      vertex 2.848 28.4343 -3
    endloop
  endfacet
  facet normal -0.809025 0.587774 0
    outer loop
      vertex 2.848 28.4343 0
      vertex 2.36915 27.7752 -3
      vertex 2.36915 27.7752 0
    endloop
  endfacet
  facet normal 0.535807 0.844341 -0
    outer loop
      vertex -1.38378 27.0593 -3
      vertex -2.07163 27.4958 0
      vertex -1.38378 27.0593 0
    endloop
  endfacet
  facet normal 0.535807 0.844341 0
    outer loop
      vertex -2.07163 27.4958 0
      vertex -1.38378 27.0593 -3
      vertex -2.07163 27.4958 -3
    endloop
  endfacet
  facet normal -0.929787 0.368098 0
    outer loop
      vertex 2.848 28.4343 -3
      vertex 3.14789 29.1918 0
      vertex 3.14789 29.1918 -3
    endloop
  endfacet
  facet normal -0.929787 0.368098 0
    outer loop
      vertex 3.14789 29.1918 0
      vertex 2.848 28.4343 -3
      vertex 2.848 28.4343 0
    endloop
  endfacet
  facet normal 0.968585 -0.248682 0
    outer loop
      vertex -3.22437 30.4073 0
      vertex -3.02177 31.1964 -3
      vertex -3.02177 31.1964 0
    endloop
  endfacet
  facet normal 0.968585 -0.248682 0
    outer loop
      vertex -3.02177 31.1964 -3
      vertex -3.22437 30.4073 0
      vertex -3.22437 30.4073 -3
    endloop
  endfacet
  facet normal -0.809025 -0.587774 0
    outer loop
      vertex 2.848 31.5657 -3
      vertex 2.36915 32.2248 0
      vertex 2.36915 32.2248 -3
    endloop
  endfacet
  facet normal -0.809025 -0.587774 0
    outer loop
      vertex 2.36915 32.2248 0
      vertex 2.848 31.5657 -3
      vertex 2.848 31.5657 0
    endloop
  endfacet
  facet normal 0.728993 -0.684522 0
    outer loop
      vertex -2.6293 31.9103 0
      vertex -2.07163 32.5042 -3
      vertex -2.07163 32.5042 0
    endloop
  endfacet
  facet normal 0.728993 -0.684522 0
    outer loop
      vertex -2.07163 32.5042 -3
      vertex -2.6293 31.9103 0
      vertex -2.6293 31.9103 -3
    endloop
  endfacet
  facet normal 0.876307 -0.481754 0
    outer loop
      vertex -3.02177 31.1964 0
      vertex -2.6293 31.9103 -3
      vertex -2.6293 31.9103 0
    endloop
  endfacet
  facet normal 0.876307 -0.481754 0
    outer loop
      vertex -2.6293 31.9103 -3
      vertex -3.02177 31.1964 0
      vertex -3.02177 31.1964 -3
    endloop
  endfacet
  facet normal 0.728993 0.684522 0
    outer loop
      vertex -2.07163 27.4958 0
      vertex -2.6293 28.0897 -3
      vertex -2.6293 28.0897 0
    endloop
  endfacet
  facet normal 0.728993 0.684522 0
    outer loop
      vertex -2.6293 28.0897 -3
      vertex -2.07163 27.4958 0
      vertex -2.07163 27.4958 -3
    endloop
  endfacet
  facet normal 0.876307 0.481754 0
    outer loop
      vertex -2.6293 28.0897 0
      vertex -3.02177 28.8036 -3
      vertex -3.02177 28.8036 0
    endloop
  endfacet
  facet normal 0.876307 0.481754 0
    outer loop
      vertex -3.02177 28.8036 -3
      vertex -2.6293 28.0897 0
      vertex -2.6293 28.0897 -3
    endloop
  endfacet
  facet normal 0.968585 0.248682 0
    outer loop
      vertex -3.02177 28.8036 0
      vertex -3.22437 29.5927 -3
      vertex -3.22437 29.5927 0
    endloop
  endfacet
  facet normal 0.968585 0.248682 0
    outer loop
      vertex -3.22437 29.5927 -3
      vertex -3.02177 28.8036 0
      vertex -3.02177 28.8036 -3
    endloop
  endfacet
  facet normal 0.308967 0.951073 -0
    outer loop
      vertex -0.608989 26.8076 -3
      vertex -1.38378 27.0593 0
      vertex -0.608989 26.8076 0
    endloop
  endfacet
  facet normal 0.308967 0.951073 0
    outer loop
      vertex -1.38378 27.0593 0
      vertex -0.608989 26.8076 -3
      vertex -1.38378 27.0593 -3
    endloop
  endfacet
  facet normal -0.187438 0.982276 0
    outer loop
      vertex 1.0043 26.9091 -3
      vertex 0.204069 26.7564 0
      vertex 1.0043 26.9091 0
    endloop
  endfacet
  facet normal -0.187438 0.982276 0
    outer loop
      vertex 0.204069 26.7564 0
      vertex 1.0043 26.9091 -3
      vertex 0.204069 26.7564 -3
    endloop
  endfacet
  facet normal -0.187438 -0.982276 0
    outer loop
      vertex 0.204069 33.2436 -3
      vertex 1.0043 33.0909 0
      vertex 0.204069 33.2436 0
    endloop
  endfacet
  facet normal -0.187438 -0.982276 -0
    outer loop
      vertex 1.0043 33.0909 0
      vertex 0.204069 33.2436 -3
      vertex 1.0043 33.0909 -3
    endloop
  endfacet
  facet normal -0.637434 -0.770505 0
    outer loop
      vertex 1.74144 32.7441 -3
      vertex 2.36915 32.2248 0
      vertex 1.74144 32.7441 0
    endloop
  endfacet
  facet normal -0.637434 -0.770505 -0
    outer loop
      vertex 2.36915 32.2248 0
      vertex 1.74144 32.7441 -3
      vertex 2.36915 32.2248 -3
    endloop
  endfacet
  facet normal -0.425707 -0.904861 0
    outer loop
      vertex 1.0043 33.0909 -3
      vertex 1.74144 32.7441 0
      vertex 1.0043 33.0909 0
    endloop
  endfacet
  facet normal -0.425707 -0.904861 -0
    outer loop
      vertex 1.74144 32.7441 0
      vertex 1.0043 33.0909 -3
      vertex 1.74144 32.7441 -3
    endloop
  endfacet
  facet normal -0.425707 0.904861 0
    outer loop
      vertex 1.74144 27.2559 -3
      vertex 1.0043 26.9091 0
      vertex 1.74144 27.2559 0
    endloop
  endfacet
  facet normal -0.425707 0.904861 0
    outer loop
      vertex 1.0043 26.9091 0
      vertex 1.74144 27.2559 -3
      vertex 1.0043 26.9091 -3
    endloop
  endfacet
  facet normal 0.535807 -0.844341 0
    outer loop
      vertex -2.07163 32.5042 -3
      vertex -1.38378 32.9407 0
      vertex -2.07163 32.5042 0
    endloop
  endfacet
  facet normal 0.535807 -0.844341 0
    outer loop
      vertex -1.38378 32.9407 0
      vertex -2.07163 32.5042 -3
      vertex -1.38378 32.9407 -3
    endloop
  endfacet
  facet normal 0.308967 -0.951073 0
    outer loop
      vertex -1.38378 32.9407 -3
      vertex -0.608989 33.1924 0
      vertex -1.38378 32.9407 0
    endloop
  endfacet
  facet normal 0.308967 -0.951073 0
    outer loop
      vertex -0.608989 33.1924 0
      vertex -1.38378 32.9407 -3
      vertex -0.608989 33.1924 -3
    endloop
  endfacet
  facet normal -0.929787 -0.368098 0
    outer loop
      vertex 3.14789 30.8082 -3
      vertex 2.848 31.5657 0
      vertex 2.848 31.5657 -3
    endloop
  endfacet
  facet normal -0.929787 -0.368098 0
    outer loop
      vertex 2.848 31.5657 0
      vertex 3.14789 30.8082 -3
      vertex 3.14789 30.8082 0
    endloop
  endfacet
  facet normal -0.992113 0.125346 0
    outer loop
      vertex 3.14789 -30.8082 -3
      vertex 3.25 -30 0
      vertex 3.25 -30 -3
    endloop
  endfacet
  facet normal -0.992113 0.125346 0
    outer loop
      vertex 3.25 -30 0
      vertex 3.14789 -30.8082 -3
      vertex 3.14789 -30.8082 0
    endloop
  endfacet
  facet normal -0.992113 -0.125346 0
    outer loop
      vertex 3.25 -30 -3
      vertex 3.14789 -29.1918 0
      vertex 3.14789 -29.1918 -3
    endloop
  endfacet
  facet normal -0.992113 -0.125346 0
    outer loop
      vertex 3.14789 -29.1918 0
      vertex 3.25 -30 -3
      vertex 3.25 -30 0
    endloop
  endfacet
  facet normal 1 -0 0
    outer loop
      vertex -3.22437 -30.4073 0
      vertex -3.22437 -29.5927 -3
      vertex -3.22437 -29.5927 0
    endloop
  endfacet
  facet normal 1 0 0
    outer loop
      vertex -3.22437 -29.5927 -3
      vertex -3.22437 -30.4073 0
      vertex -3.22437 -30.4073 -3
    endloop
  endfacet
  facet normal 0.0628476 0.998023 -0
    outer loop
      vertex 0.204069 -33.2436 -3
      vertex -0.608989 -33.1924 0
      vertex 0.204069 -33.2436 0
    endloop
  endfacet
  facet normal 0.0628476 0.998023 0
    outer loop
      vertex -0.608989 -33.1924 0
      vertex 0.204069 -33.2436 -3
      vertex -0.608989 -33.1924 -3
    endloop
  endfacet
  facet normal 0.0628476 -0.998023 0
    outer loop
      vertex -0.608989 -26.8076 -3
      vertex 0.204069 -26.7564 0
      vertex -0.608989 -26.8076 0
    endloop
  endfacet
  facet normal 0.0628476 -0.998023 0
    outer loop
      vertex 0.204069 -26.7564 0
      vertex -0.608989 -26.8076 -3
      vertex 0.204069 -26.7564 -3
    endloop
  endfacet
  facet normal 0.968585 0.248682 0
    outer loop
      vertex -3.02177 -31.1964 0
      vertex -3.22437 -30.4073 -3
      vertex -3.22437 -30.4073 0
    endloop
  endfacet
  facet normal 0.968585 0.248682 0
    outer loop
      vertex -3.22437 -30.4073 -3
      vertex -3.02177 -31.1964 0
      vertex -3.02177 -31.1964 -3
    endloop
  endfacet
  facet normal -0.637434 0.770505 0
    outer loop
      vertex 2.36915 -32.2248 -3
      vertex 1.74144 -32.7441 0
      vertex 2.36915 -32.2248 0
    endloop
  endfacet
  facet normal -0.637434 0.770505 0
    outer loop
      vertex 1.74144 -32.7441 0
      vertex 2.36915 -32.2248 -3
      vertex 1.74144 -32.7441 -3
    endloop
  endfacet
  facet normal -0.809025 0.587774 0
    outer loop
      vertex 2.36915 -32.2248 -3
      vertex 2.848 -31.5657 0
      vertex 2.848 -31.5657 -3
    endloop
  endfacet
  facet normal -0.809025 0.587774 0
    outer loop
      vertex 2.848 -31.5657 0
      vertex 2.36915 -32.2248 -3
      vertex 2.36915 -32.2248 0
    endloop
  endfacet
  facet normal 0.535807 0.844341 -0
    outer loop
      vertex -1.38378 -32.9407 -3
      vertex -2.07163 -32.5042 0
      vertex -1.38378 -32.9407 0
    endloop
  endfacet
  facet normal 0.535807 0.844341 0
    outer loop
      vertex -2.07163 -32.5042 0
      vertex -1.38378 -32.9407 -3
      vertex -2.07163 -32.5042 -3
    endloop
  endfacet
  facet normal -0.929787 0.368098 0
    outer loop
      vertex 2.848 -31.5657 -3
      vertex 3.14789 -30.8082 0
      vertex 3.14789 -30.8082 -3
    endloop
  endfacet
  facet normal -0.929787 0.368098 0
    outer loop
      vertex 3.14789 -30.8082 0
      vertex 2.848 -31.5657 -3
      vertex 2.848 -31.5657 0
    endloop
  endfacet
  facet normal 0.968585 -0.248682 0
    outer loop
      vertex -3.22437 -29.5927 0
      vertex -3.02177 -28.8036 -3
      vertex -3.02177 -28.8036 0
    endloop
  endfacet
  facet normal 0.968585 -0.248682 0
    outer loop
      vertex -3.02177 -28.8036 -3
      vertex -3.22437 -29.5927 0
      vertex -3.22437 -29.5927 -3
    endloop
  endfacet
  facet normal -0.809025 -0.587774 0
    outer loop
      vertex 2.848 -28.4343 -3
      vertex 2.36915 -27.7752 0
      vertex 2.36915 -27.7752 -3
    endloop
  endfacet
  facet normal -0.809025 -0.587774 0
    outer loop
      vertex 2.36915 -27.7752 0
      vertex 2.848 -28.4343 -3
      vertex 2.848 -28.4343 0
    endloop
  endfacet
  facet normal 0.728993 -0.684522 0
    outer loop
      vertex -2.6293 -28.0897 0
      vertex -2.07163 -27.4958 -3
      vertex -2.07163 -27.4958 0
    endloop
  endfacet
  facet normal 0.728993 -0.684522 0
    outer loop
      vertex -2.07163 -27.4958 -3
      vertex -2.6293 -28.0897 0
      vertex -2.6293 -28.0897 -3
    endloop
  endfacet
  facet normal 0.876307 -0.481754 0
    outer loop
      vertex -3.02177 -28.8036 0
      vertex -2.6293 -28.0897 -3
      vertex -2.6293 -28.0897 0
    endloop
  endfacet
  facet normal 0.876307 -0.481754 0
    outer loop
      vertex -2.6293 -28.0897 -3
      vertex -3.02177 -28.8036 0
      vertex -3.02177 -28.8036 -3
    endloop
  endfacet
  facet normal 0.728993 0.684522 0
    outer loop
      vertex -2.07163 -32.5042 0
      vertex -2.6293 -31.9103 -3
      vertex -2.6293 -31.9103 0
    endloop
  endfacet
  facet normal 0.728993 0.684522 0
    outer loop
      vertex -2.6293 -31.9103 -3
      vertex -2.07163 -32.5042 0
      vertex -2.07163 -32.5042 -3
    endloop
  endfacet
  facet normal 0.876307 0.481754 0
    outer loop
      vertex -2.6293 -31.9103 0
      vertex -3.02177 -31.1964 -3
      vertex -3.02177 -31.1964 0
    endloop
  endfacet
  facet normal 0.876307 0.481754 0
    outer loop
      vertex -3.02177 -31.1964 -3
      vertex -2.6293 -31.9103 0
      vertex -2.6293 -31.9103 -3
    endloop
  endfacet
  facet normal 0.308967 0.951073 -0
    outer loop
      vertex -0.608989 -33.1924 -3
      vertex -1.38378 -32.9407 0
      vertex -0.608989 -33.1924 0
    endloop
  endfacet
  facet normal 0.308967 0.951073 0
    outer loop
      vertex -1.38378 -32.9407 0
      vertex -0.608989 -33.1924 -3
      vertex -1.38378 -32.9407 -3
    endloop
  endfacet
  facet normal -0.187438 0.982276 0
    outer loop
      vertex 1.0043 -33.0909 -3
      vertex 0.204069 -33.2436 0
      vertex 1.0043 -33.0909 0
    endloop
  endfacet
  facet normal -0.187438 0.982276 0
    outer loop
      vertex 0.204069 -33.2436 0
      vertex 1.0043 -33.0909 -3
      vertex 0.204069 -33.2436 -3
    endloop
  endfacet
  facet normal -0.187438 -0.982276 0
    outer loop
      vertex 0.204069 -26.7564 -3
      vertex 1.0043 -26.9091 0
      vertex 0.204069 -26.7564 0
    endloop
  endfacet
  facet normal -0.187438 -0.982276 -0
    outer loop
      vertex 1.0043 -26.9091 0
      vertex 0.204069 -26.7564 -3
      vertex 1.0043 -26.9091 -3
    endloop
  endfacet
  facet normal -0.637434 -0.770505 0
    outer loop
      vertex 1.74144 -27.2559 -3
      vertex 2.36915 -27.7752 0
      vertex 1.74144 -27.2559 0
    endloop
  endfacet
  facet normal -0.637434 -0.770505 -0
    outer loop
      vertex 2.36915 -27.7752 0
      vertex 1.74144 -27.2559 -3
      vertex 2.36915 -27.7752 -3
    endloop
  endfacet
  facet normal -0.425707 -0.904861 0
    outer loop
      vertex 1.0043 -26.9091 -3
      vertex 1.74144 -27.2559 0
      vertex 1.0043 -26.9091 0
    endloop
  endfacet
  facet normal -0.425707 -0.904861 -0
    outer loop
      vertex 1.74144 -27.2559 0
      vertex 1.0043 -26.9091 -3
      vertex 1.74144 -27.2559 -3
    endloop
  endfacet
  facet normal -0.425707 0.904861 0
    outer loop
      vertex 1.74144 -32.7441 -3
      vertex 1.0043 -33.0909 0
      vertex 1.74144 -32.7441 0
    endloop
  endfacet
  facet normal -0.425707 0.904861 0
    outer loop
      vertex 1.0043 -33.0909 0
      vertex 1.74144 -32.7441 -3
      vertex 1.0043 -33.0909 -3
    endloop
  endfacet
  facet normal -0.929787 -0.368098 0
    outer loop
      vertex 3.14789 -29.1918 -3
      vertex 2.848 -28.4343 0
      vertex 2.848 -28.4343 -3
    endloop
  endfacet
  facet normal -0.929787 -0.368098 0
    outer loop
      vertex 2.848 -28.4343 0
      vertex 3.14789 -29.1918 -3
      vertex 3.14789 -29.1918 0
    endloop
  endfacet
  facet normal 0.535807 -0.844341 0
    outer loop
      vertex -2.07163 -27.4958 -3
      vertex -1.38378 -27.0593 0
      vertex -2.07163 -27.4958 0
    endloop
  endfacet
  facet normal 0.535807 -0.844341 0
    outer loop
      vertex -1.38378 -27.0593 0
      vertex -2.07163 -27.4958 -3
      vertex -1.38378 -27.0593 -3
    endloop
  endfacet
  facet normal 0.308967 -0.951073 0
    outer loop
      vertex -1.38378 -27.0593 -3
      vertex -0.608989 -26.8076 0
      vertex -1.38378 -27.0593 0
    endloop
  endfacet
  facet normal 0.308967 -0.951073 0
    outer loop
      vertex -0.608989 -26.8076 0
      vertex -1.38378 -27.0593 -3
      vertex -0.608989 -26.8076 -3
    endloop
  endfacet
endsolid OpenSCAD_Model
